<svg version="1.1" viewBox="0.0 0.0 384.0 288.0" fill="none" stroke="none" stroke-linecap="square" stroke-miterlimit="10" xmlns:xlink="http://www.w3.org/1999/xlink" xmlns="http://www.w3.org/2000/svg"><clipPath id="p.0"><path d="m0 0l384.0 0l0 288.0l-384.0 0l0 -288.0z" clip-rule="nonzero"/></clipPath><g clip-path="url(#p.0)"><path fill="#000000" fill-opacity="0.0" d="m0 0l384.0 0l0 288.0l-384.0 0z" fill-rule="evenodd"/><path fill="#000000" fill-opacity="0.0" d="m168.0105 26.913385l206.04724 0l0 235.08661l-206.04724 0z" fill-rule="evenodd"/><path stroke="#666666" stroke-width="1.0" stroke-linejoin="round" stroke-linecap="butt" stroke-dasharray="4.0,3.0" d="m168.0105 26.913385l206.04724 0l0 235.08661l-206.04724 0z" fill-rule="evenodd"/><path fill="#000000" fill-opacity="0.0" d="m218.56586 212.15958l0.71621704 -160.88953" fill-rule="evenodd"/><path stroke="#666666" stroke-width="1.0" stroke-linejoin="round" stroke-linecap="butt" d="m218.56586 212.15958l0.6894989 -154.88959" fill-rule="evenodd"/><path fill="#666666" stroke="#666666" stroke-width="1.0" stroke-linecap="butt" d="m220.90707 57.277336l-1.6315155 -4.5454025l-1.6719208 4.530697z" fill-rule="evenodd"/><path fill="#000000" fill-opacity="0.0" d="m218.56625 212.15958l120.74988 -0.6030731" fill-rule="evenodd"/><path stroke="#666666" stroke-width="1.0" stroke-linejoin="round" stroke-linecap="butt" d="m218.56625 212.15958l114.74997 -0.57310486" fill-rule="evenodd"/><path fill="#666666" stroke="#666666" stroke-width="1.0" stroke-linecap="butt" d="m333.32446 213.23819l4.5298157 -1.6743774l-4.546295 -1.6290436z" fill-rule="evenodd"/><path fill="#000000" fill-opacity="0.0" d="m219.0812 212.16003c0.28404236 -2.9876099 1.2306824 -11.502701 1.7042389 -17.925674c0.47357178 -6.422989 0.6631012 -14.189209 1.1371613 -20.612183c0.47406006 -6.422989 1.1386414 -11.203171 1.7072144 -17.92569c0.56858826 -6.722519 1.2306824 -15.686935 1.7042389 -22.409454c0.47357178 -6.7225266 0.18952942 -12.697754 1.1371613 -17.925682c0.94763184 -5.227936 2.653366 -9.558014 4.5486145 -13.44191c1.8952637 -3.8838959 3.7905273 -7.321617 6.822937 -9.861481c3.0324097 -2.5398636 6.91745 -4.0336685 11.3715515 -5.377701c4.4541016 -1.3440323 10.330383 -1.7902145 15.353088 -2.6865005c5.0226746 -0.896286 10.329407 -1.9439087 14.78302 -2.691208c4.453583 -0.74729156 8.811707 -1.3448181 11.938629 -1.7925644c3.1269226 -0.4477539 5.6857605 -0.7449417 6.8229065 -0.89393616" fill-rule="evenodd"/><path stroke="#76a5af" stroke-width="2.0" stroke-linejoin="round" stroke-linecap="butt" d="m219.0812 212.16003c0.28404236 -2.9876099 1.2306824 -11.502701 1.7042389 -17.925674c0.47357178 -6.422989 0.6631012 -14.189209 1.1371613 -20.612183c0.47406006 -6.422989 1.1386414 -11.203171 1.7072144 -17.92569c0.56858826 -6.722519 1.2306824 -15.686935 1.7042389 -22.409454c0.47357178 -6.7225266 0.18952942 -12.697754 1.1371613 -17.925682c0.94763184 -5.227936 2.653366 -9.558014 4.5486145 -13.44191c1.8952637 -3.8838959 3.7905273 -7.321617 6.822937 -9.861481c3.0324097 -2.5398636 6.91745 -4.0336685 11.3715515 -5.377701c4.4541016 -1.3440323 10.330383 -1.7902145 15.353088 -2.6865005c5.0226746 -0.896286 10.329407 -1.9439087 14.78302 -2.691208c4.453583 -0.74729156 8.811707 -1.3448181 11.938629 -1.7925644c3.1269226 -0.4477539 5.6857605 -0.7449417 6.8229065 -0.89393616" fill-rule="evenodd"/><path fill="#000000" fill-opacity="0.0" d="m219.08136 212.1567c0.3874817 -4.8863983 1.5499115 -20.434753 2.3248596 -29.31842c0.7749634 -8.883667 1.6470337 -16.284378 2.3248749 -23.983566c0.6778259 -7.699173 1.1609039 -16.732834 1.7421112 -22.211487c0.58122253 -5.4786377 1.1639557 -7.4030457 1.7451782 -10.660393c0.5812073 -3.257347 0.5796814 -5.9224396 1.7421112 -8.883667c1.1624451 -2.9612198 3.1013489 -6.8108063 5.2324677 -8.883659c2.131134 -2.072853 4.9390564 -2.6651 7.5542755 -3.5534668c2.615219 -0.8883667 4.552597 -1.3329391 8.137024 -1.7767334c3.5844116 -0.44379425 8.719742 -1.1821594 13.369461 -0.8860321c4.6497498 0.2961197 10.751221 1.6267242 14.52887 2.6627655c3.777649 1.0360413 5.230957 1.7767334 8.137024 3.5534668c2.906067 1.7767334 7.749542 5.9224396 9.299438 7.106926" fill-rule="evenodd"/><path stroke="#6fa8dc" stroke-width="2.0" stroke-linejoin="round" stroke-linecap="butt" d="m219.08136 212.1567c0.3874817 -4.8863983 1.5499115 -20.434753 2.3248596 -29.31842c0.7749634 -8.883667 1.6470337 -16.284378 2.3248749 -23.983566c0.6778259 -7.699173 1.1609039 -16.732834 1.7421112 -22.211487c0.58122253 -5.4786377 1.1639557 -7.4030457 1.7451782 -10.660393c0.5812073 -3.257347 0.5796814 -5.9224396 1.7421112 -8.883667c1.1624451 -2.9612198 3.1013489 -6.8108063 5.2324677 -8.883659c2.131134 -2.072853 4.9390564 -2.6651 7.5542755 -3.5534668c2.615219 -0.8883667 4.552597 -1.3329391 8.137024 -1.7767334c3.5844116 -0.44379425 8.719742 -1.1821594 13.369461 -0.8860321c4.6497498 0.2961197 10.751221 1.6267242 14.52887 2.6627655c3.777649 1.0360413 5.230957 1.7767334 8.137024 3.5534668c2.906067 1.7767334 7.749542 5.9224396 9.299438 7.106926" fill-rule="evenodd"/><path fill="#000000" fill-opacity="0.0" d="m298.11234 68.4977l98.34085 0l0 43.013626l-98.34085 0z" fill-rule="evenodd"/><path fill="#76a5af" d="m303.61234 81.7377l0 -6.34375l-2.265625 0l0 -1.28125l6.0625 0l0 1.28125l-2.265625 0l0 6.34375l-1.53125 0zm5.5925903 0l-1.46875 0l0 -5.53125l1.359375 0l0 0.796875q0.34375 -0.5625 0.625 -0.734375q0.28125 -0.1875 0.625 -0.1875q0.5 0 0.96875 0.28125l-0.453125 1.28125q-0.375 -0.25 -0.6875 -0.25q-0.3125 0 -0.53125 0.171875q-0.203125 0.171875 -0.328125 0.625q-0.109375 0.4375 -0.109375 1.84375l0 1.703125zm3.8344727 -3.84375l-1.328125 -0.234375q0.21875 -0.796875 0.765625 -1.1875q0.546875 -0.390625 1.625 -0.390625q0.984375 0 1.453125 0.234375q0.484375 0.234375 0.671875 0.59375q0.203125 0.359375 0.203125 1.3125l-0.015625 1.703125q0 0.71875 0.0625 1.078125q0.078125 0.34375 0.265625 0.734375l-1.4375 0q-0.0625 -0.140625 -0.140625 -0.4375q-0.046875 -0.125 -0.0625 -0.171875q-0.375 0.375 -0.796875 0.5625q-0.421875 0.171875 -0.90625 0.171875q-0.859375 0 -1.359375 -0.453125q-0.484375 -0.46875 -0.484375 -1.1875q0 -0.46875 0.21875 -0.828125q0.234375 -0.359375 0.640625 -0.546875q0.40625 -0.203125 1.15625 -0.359375q1.03125 -0.1875 1.421875 -0.359375l0 -0.140625q0 -0.421875 -0.21875 -0.59375q-0.203125 -0.1875 -0.78125 -0.1875q-0.375 0 -0.59375 0.15625q-0.21875 0.15625 -0.359375 0.53125zm1.953125 1.1875q-0.28125 0.09375 -0.890625 0.234375q-0.609375 0.125 -0.796875 0.25q-0.28125 0.203125 -0.28125 0.515625q0 0.296875 0.21875 0.53125q0.234375 0.21875 0.59375 0.21875q0.390625 0 0.75 -0.265625q0.265625 -0.1875 0.34375 -0.484375q0.0625 -0.1875 0.0625 -0.703125l0 -0.296875zm2.8796387 -3.625l0 -1.34375l1.46875 0l0 1.34375l-1.46875 0zm0 6.28125l0 -5.53125l1.46875 0l0 5.53125l-1.46875 0zm7.9918823 0l-1.46875 0l0 -2.8125q0 -0.90625 -0.09375 -1.15625q-0.09375 -0.265625 -0.3125 -0.40625q-0.203125 -0.15625 -0.5 -0.15625q-0.375 0 -0.6875 0.21875q-0.296875 0.203125 -0.40625 0.546875q-0.109375 0.34375 -0.109375 1.265625l0 2.5l-1.46875 0l0 -5.53125l1.359375 0l0 0.8125q0.71875 -0.9375 1.828125 -0.9375q0.484375 0 0.875 0.1875q0.40625 0.171875 0.609375 0.4375q0.203125 0.265625 0.28125 0.609375q0.09375 0.34375 0.09375 0.984375l0 3.4375z" fill-rule="nonzero"/><path fill="#000000" fill-opacity="0.0" d="m298.1139 106.05695l98.34085 0l0 43.01362l-98.34085 0z" fill-rule="evenodd"/><path fill="#6fa8dc" d="m303.6139 119.29695l0 -6.34375l-2.265625 0l0 -1.28125l6.0625 0l0 1.28125l-2.265625 0l0 6.34375l-1.53125 0zm7.6238403 0l0 -0.828125q-0.3125 0.4375 -0.8125 0.703125q-0.484375 0.25 -1.015625 0.25q-0.5625 0 -1.015625 -0.234375q-0.4375 -0.25 -0.640625 -0.6875q-0.1875 -0.453125 -0.1875 -1.234375l0 -3.5l1.46875 0l0 2.546875q0 1.15625 0.078125 1.421875q0.078125 0.265625 0.28125 0.421875q0.21875 0.15625 0.546875 0.15625q0.375 0 0.671875 -0.203125q0.296875 -0.21875 0.40625 -0.515625q0.109375 -0.3125 0.109375 -1.484375l0 -2.34375l1.46875 0l0 5.53125l-1.359375 0zm7.899872 0l-1.46875 0l0 -2.8125q0 -0.90625 -0.09375 -1.15625q-0.09375 -0.265625 -0.3125 -0.40625q-0.203125 -0.15625 -0.5 -0.15625q-0.375 0 -0.6875 0.21875q-0.296875 0.203125 -0.40625 0.546875q-0.109375 0.34375 -0.109375 1.265625l0 2.5l-1.46875 0l0 -5.53125l1.359375 0l0 0.8125q0.71875 -0.9375 1.828125 -0.9375q0.484375 0 0.875 0.1875q0.40625 0.171875 0.609375 0.4375q0.203125 0.265625 0.28125 0.609375q0.09375 0.34375 0.09375 0.984375l0 3.4375zm4.6811523 -1.765625l1.453125 0.25q-0.28125 0.796875 -0.890625 1.21875q-0.609375 0.421875 -1.515625 0.421875q-1.4375 0 -2.125 -0.9375q-0.546875 -0.765625 -0.546875 -1.90625q0 -1.375 0.71875 -2.15625q0.71875 -0.78125 1.8125 -0.78125q1.234375 0 1.9375 0.828125q0.71875 0.8125 0.6875 2.484375l-3.65625 0q0.015625 0.65625 0.34375 1.015625q0.34375 0.359375 0.84375 0.359375q0.34375 0 0.578125 -0.1875q0.234375 -0.1875 0.359375 -0.609375zm0.078125 -1.46875q-0.015625 -0.640625 -0.328125 -0.96875q-0.3125 -0.328125 -0.765625 -0.328125q-0.46875 0 -0.78125 0.34375q-0.3125 0.359375 -0.3125 0.953125l2.1875 0z" fill-rule="nonzero"/><path fill="#000000" fill-opacity="0.0" d="m247.07935 170.67375l138.14548 0l0 37.406693l-138.14548 0z" fill-rule="evenodd"/><path fill="#434343" d="m250.39185 184.505l1.828125 -0.28125q0.125 0.53125 0.484375 0.8125q0.359375 0.265625 1.0 0.265625q0.703125 0 1.0625 -0.25q0.25 -0.1875 0.25 -0.484375q0 -0.21875 -0.140625 -0.359375q-0.125 -0.125 -0.609375 -0.234375q-2.203125 -0.484375 -2.796875 -0.890625q-0.828125 -0.5625 -0.828125 -1.5625q0 -0.890625 0.703125 -1.5q0.71875 -0.609375 2.203125 -0.609375q1.421875 0 2.109375 0.46875q0.703125 0.453125 0.953125 1.359375l-1.71875 0.3125q-0.109375 -0.40625 -0.421875 -0.609375q-0.3125 -0.21875 -0.890625 -0.21875q-0.71875 0 -1.03125 0.203125q-0.203125 0.140625 -0.203125 0.359375q0 0.203125 0.1875 0.34375q0.234375 0.171875 1.6875 0.515625q1.46875 0.328125 2.0625 0.8125q0.5625 0.484375 0.5625 1.359375q0 0.953125 -0.796875 1.640625q-0.78125 0.671875 -2.34375 0.671875q-1.40625 0 -2.234375 -0.5625q-0.828125 -0.578125 -1.078125 -1.5625zm12.053101 -0.234375l1.828125 0.3125q-0.34375 1.0 -1.109375 1.53125q-0.765625 0.515625 -1.890625 0.515625q-1.8125 0 -2.671875 -1.171875q-0.6875 -0.953125 -0.6875 -2.390625q0 -1.71875 0.890625 -2.6875q0.90625 -0.96875 2.28125 -0.96875q1.546875 0 2.4375 1.015625q0.890625 1.015625 0.84375 3.125l-4.578125 0q0.015625 0.8125 0.4375 1.265625q0.421875 0.453125 1.0625 0.453125q0.421875 0 0.71875 -0.234375q0.296875 -0.234375 0.4375 -0.765625zm0.109375 -1.84375q-0.015625 -0.796875 -0.40625 -1.203125q-0.390625 -0.421875 -0.953125 -0.421875q-0.59375 0 -0.984375 0.4375q-0.390625 0.4375 -0.390625 1.1875l2.734375 0zm3.3031006 4.046875l0 -9.546875l1.828125 0l0 9.546875l-1.828125 0zm7.703003 -2.203125l1.828125 0.3125q-0.34375 1.0 -1.109375 1.53125q-0.765625 0.515625 -1.890625 0.515625q-1.8125 0 -2.671875 -1.171875q-0.6875 -0.953125 -0.6875 -2.390625q0 -1.71875 0.890625 -2.6875q0.90625 -0.96875 2.28125 -0.96875q1.546875 0 2.4375 1.015625q0.890625 1.015625 0.84375 3.125l-4.578125 0q0.015625 0.8125 0.4375 1.265625q0.421875 0.453125 1.0625 0.453125q0.421875 0 0.71875 -0.234375q0.296875 -0.234375 0.4375 -0.765625zm0.109375 -1.84375q-0.015625 -0.796875 -0.40625 -1.203125q-0.390625 -0.421875 -0.953125 -0.421875q-0.59375 0 -0.984375 0.4375q-0.390625 0.4375 -0.390625 1.1875l2.734375 0zm9.334351 -0.828125l-1.796875 0.328125q-0.09375 -0.53125 -0.421875 -0.796875q-0.328125 -0.28125 -0.828125 -0.28125q-0.6875 0 -1.09375 0.46875q-0.40625 0.46875 -0.40625 1.578125q0 1.234375 0.40625 1.75q0.421875 0.5 1.109375 0.5q0.53125 0 0.859375 -0.296875q0.328125 -0.296875 0.46875 -1.03125l1.796875 0.3125q-0.28125 1.234375 -1.078125 1.875q-0.796875 0.625 -2.125 0.625q-1.515625 0 -2.421875 -0.953125q-0.90625 -0.953125 -0.90625 -2.65625q0 -1.703125 0.90625 -2.65625q0.90625 -0.953125 2.453125 -0.953125q1.265625 0 2.0 0.546875q0.75 0.53125 1.078125 1.640625zm4.5531006 -2.03125l0 1.453125l-1.25 0l0 2.78125q0 0.84375 0.03125 0.984375q0.046875 0.140625 0.171875 0.234375q0.125 0.09375 0.3125 0.09375q0.25 0 0.734375 -0.171875l0.15625 1.421875q-0.640625 0.265625 -1.453125 0.265625q-0.484375 0 -0.890625 -0.15625q-0.390625 -0.171875 -0.578125 -0.4375q-0.1875 -0.265625 -0.265625 -0.71875q-0.046875 -0.3125 -0.046875 -1.28125l0 -3.015625l-0.84375 0l0 -1.453125l0.84375 0l0 -1.375l1.828125 -1.078125l0 2.453125l1.25 0zm5.2664795 4.703125l1.828125 0.3125q-0.34375 1.0 -1.109375 1.53125q-0.765625 0.515625 -1.890625 0.515625q-1.8125 0 -2.671875 -1.171875q-0.6875 -0.953125 -0.6875 -2.390625q0 -1.71875 0.890625 -2.6875q0.90625 -0.96875 2.28125 -0.96875q1.546875 0 2.4375 1.015625q0.890625 1.015625 0.84375 3.125l-4.578125 0q0.015625 0.8125 0.4375 1.265625q0.421875 0.453125 1.0625 0.453125q0.421875 0 0.71875 -0.234375q0.296875 -0.234375 0.4375 -0.765625zm0.109375 -1.84375q-0.015625 -0.796875 -0.40625 -1.203125q-0.390625 -0.421875 -0.953125 -0.421875q-0.59375 0 -0.984375 0.4375q-0.390625 0.4375 -0.390625 1.1875l2.734375 0zm9.646851 4.046875l-1.703125 0l0 -1.015625q-0.421875 0.59375 -1.0 0.890625q-0.578125 0.28125 -1.15625 0.28125q-1.1875 0 -2.046875 -0.953125q-0.84375 -0.96875 -0.84375 -2.6875q0 -1.75 0.828125 -2.65625q0.828125 -0.921875 2.09375 -0.921875q1.15625 0 2.0 0.953125l0 -3.4375l1.828125 0l0 9.546875zm-4.875 -3.609375q0 1.109375 0.296875 1.609375q0.4375 0.71875 1.234375 0.71875q0.640625 0 1.078125 -0.53125q0.4375 -0.546875 0.4375 -1.609375q0 -1.203125 -0.4375 -1.71875q-0.421875 -0.53125 -1.09375 -0.53125q-0.640625 0 -1.078125 0.515625q-0.4375 0.515625 -0.4375 1.546875zm10.234985 -3.296875l1.6875 0l0 0.9375q0.90625 -1.09375 2.15625 -1.09375q0.671875 0 1.15625 0.28125q0.484375 0.265625 0.796875 0.8125q0.453125 -0.546875 0.984375 -0.8125q0.53125 -0.28125 1.125 -0.28125q0.765625 0 1.28125 0.3125q0.53125 0.296875 0.796875 0.90625q0.1875 0.4375 0.1875 1.421875l0 4.421875l-1.828125 0l0 -3.953125q0 -1.03125 -0.1875 -1.328125q-0.25 -0.390625 -0.78125 -0.390625q-0.390625 0 -0.734375 0.234375q-0.328125 0.234375 -0.484375 0.6875q-0.140625 0.453125 -0.140625 1.4375l0 3.3125l-1.828125 0l0 -3.78125q0 -1.015625 -0.109375 -1.296875q-0.09375 -0.296875 -0.296875 -0.4375q-0.203125 -0.15625 -0.546875 -0.15625q-0.421875 0 -0.765625 0.234375q-0.34375 0.21875 -0.484375 0.65625q-0.140625 0.421875 -0.140625 1.421875l0 3.359375l-1.84375 0l0 -6.90625zm11.56958 3.359375q0 -0.921875 0.453125 -1.765625q0.453125 -0.859375 1.265625 -1.296875q0.828125 -0.453125 1.84375 -0.453125q1.5625 0 2.5625 1.015625q1.015625 1.015625 1.015625 2.578125q0 1.5625 -1.015625 2.59375q-1.015625 1.03125 -2.546875 1.03125q-0.953125 0 -1.8125 -0.421875q-0.859375 -0.4375 -1.3125 -1.265625q-0.453125 -0.828125 -0.453125 -2.015625zm1.875 0.09375q0 1.03125 0.484375 1.578125q0.5 0.546875 1.203125 0.546875q0.71875 0 1.203125 -0.546875q0.484375 -0.546875 0.484375 -1.59375q0 -1.015625 -0.484375 -1.5625q-0.484375 -0.546875 -1.203125 -0.546875q-0.703125 0 -1.203125 0.546875q-0.484375 0.546875 -0.484375 1.578125zm13.031982 3.453125l-1.703125 0l0 -1.015625q-0.421875 0.59375 -1.0 0.890625q-0.578125 0.28125 -1.15625 0.28125q-1.1875 0 -2.046875 -0.953125q-0.84375 -0.96875 -0.84375 -2.6875q0 -1.75 0.828125 -2.65625q0.828125 -0.921875 2.09375 -0.921875q1.15625 0 2.0 0.953125l0 -3.4375l1.828125 0l0 9.546875zm-4.875 -3.609375q0 1.109375 0.296875 1.609375q0.4375 0.71875 1.234375 0.71875q0.640625 0 1.078125 -0.53125q0.4375 -0.546875 0.4375 -1.609375q0 -1.203125 -0.4375 -1.71875q-0.421875 -0.53125 -1.09375 -0.53125q-0.640625 0 -1.078125 0.515625q-0.4375 0.515625 -0.4375 1.546875zm10.672607 1.40625l1.828125 0.3125q-0.34375 1.0 -1.109375 1.53125q-0.765625 0.515625 -1.890625 0.515625q-1.8125 0 -2.671875 -1.171875q-0.6875 -0.953125 -0.6875 -2.390625q0 -1.71875 0.890625 -2.6875q0.90625 -0.96875 2.28125 -0.96875q1.546875 0 2.4375 1.015625q0.890625 1.015625 0.84375 3.125l-4.578125 0q0.015625 0.8125 0.4375 1.265625q0.421875 0.453125 1.0625 0.453125q0.421875 0 0.71875 -0.234375q0.296875 -0.234375 0.4375 -0.765625zm0.109375 -1.84375q-0.015625 -0.796875 -0.40625 -1.203125q-0.390625 -0.421875 -0.953125 -0.421875q-0.59375 0 -0.984375 0.4375q-0.390625 0.4375 -0.390625 1.1875l2.734375 0zm3.3031006 4.046875l0 -9.546875l1.828125 0l0 9.546875l-1.828125 0z" fill-rule="nonzero"/><path fill="#000000" fill-opacity="0.0" d="m303.5659 170.67511l-30.8107 -58.46527" fill-rule="evenodd"/><path stroke="#666666" stroke-width="1.0" stroke-linejoin="round" stroke-linecap="butt" stroke-dasharray="4.0,3.0" d="m303.5659 170.67511l-29.212952 -55.433426" fill-rule="evenodd"/><path fill="#666666" stroke="#666666" stroke-width="1.0" stroke-linecap="butt" d="m274.35294 115.241684l1.5191956 0.4705963l-2.4353943 -2.209137l0.44561768 3.2577286z" fill-rule="evenodd"/><path fill="#000000" fill-opacity="0.0" d="m185.80626 168.6618l0 -62.605278l37.408096 0l0 62.605278z" fill-rule="evenodd"/><path fill="#434343" d="m199.04626 163.72577l-7.625 0l0 -5.140625l0.890625 0l0 4.125l2.375 0l0 -3.578125l0.890625 0l0 3.578125l3.46875 0l0 1.015625zm0 -9.603012l0 0.9375l-5.96875 0q0.328125 0.34375 0.65625 0.890625q0.3125 0.546875 0.46875 0.984375l-0.90625 0q-0.359375 -0.796875 -0.890625 -1.375q-0.53125 -0.59375 -1.015625 -0.828125l0 -0.609375l7.65625 0zm-2.765625 -5.277771q-1.53125 0 -2.265625 -0.84375q-0.625 -0.71875 -0.625 -1.734375q0 -1.140625 0.75 -1.859375q0.75 -0.734375 2.0625 -0.734375q1.0625 0 1.6875 0.328125q0.609375 0.3125 0.953125 0.921875q0.328125 0.609375 0.328125 1.34375q0 1.15625 -0.734375 1.875q-0.75 0.703125 -2.15625 0.703125zm0 -0.953125q1.0625 0 1.59375 -0.46875q0.53125 -0.46875 0.53125 -1.15625q0 -0.703125 -0.53125 -1.15625q-0.53125 -0.46875 -1.625 -0.46875q-1.015625 0 -1.546875 0.46875q-0.53125 0.453125 -0.53125 1.15625q0 0.6875 0.53125 1.15625q0.515625 0.46875 1.578125 0.46875zm2.765625 -5.3171234l-5.53125 0l0 -0.84375l0.796875 0q-0.921875 -0.609375 -0.921875 -1.75q0 -0.5 0.1875 -0.921875q0.171875 -0.421875 0.46875 -0.625q0.296875 -0.21875 0.6875 -0.296875q0.265625 -0.046875 0.921875 -0.046875l3.390625 0l0 0.9375l-3.359375 0q-0.578125 0 -0.859375 0.109375q-0.28125 0.109375 -0.453125 0.390625q-0.171875 0.265625 -0.171875 0.640625q0 0.59375 0.390625 1.03125q0.375 0.4375 1.4375 0.4375l3.015625 0l0 0.9375zm0 -10.340271l-7.625 2.03125l0 -1.046875l5.0 -1.15625q0.78125 -0.1875 1.5625 -0.328125q-1.234375 -0.28125 -1.421875 -0.328125l-5.140625 -1.453125l0 -1.21875l3.859375 -1.09375q1.4375 -0.421875 2.703125 -0.59375q-0.734375 -0.15625 -1.65625 -0.390625l-4.90625 -1.1875l0 -1.015625l7.625 2.09375l0 0.96875l-5.8125 1.609375q-0.734375 0.203125 -0.890625 0.234375q0.515625 0.125 0.890625 0.234375l5.8125 1.609375l0 1.03125zm0 -8.745377l-7.625 0l0 -5.515625l0.890625 0l0 4.5l2.34375 0l0 -4.21875l0.890625 0l0 4.21875l2.59375 0l0 -4.671875l0.90625 0l0 5.6875zm-2.453125 -6.7482605l-0.078125 -0.953125q0.5625 -0.0625 0.9375 -0.3125q0.359375 -0.25 0.59375 -0.765625q0.21875 -0.515625 0.21875 -1.171875q0 -0.578125 -0.171875 -1.015625q-0.171875 -0.4375 -0.46875 -0.65625q-0.296875 -0.21875 -0.65625 -0.21875q-0.359375 0 -0.625 0.21875q-0.265625 0.203125 -0.4375 0.671875q-0.125 0.3125 -0.375 1.359375q-0.25 1.046875 -0.484375 1.46875q-0.28125 0.546875 -0.703125 0.828125q-0.421875 0.265625 -0.953125 0.265625q-0.578125 0 -1.078125 -0.328125q-0.5 -0.328125 -0.765625 -0.953125q-0.265625 -0.640625 -0.265625 -1.40625q0 -0.84375 0.28125 -1.484375q0.265625 -0.65625 0.796875 -1.0q0.53125 -0.359375 1.203125 -0.390625l0.078125 0.96875q-0.71875 0.078125 -1.09375 0.53125q-0.375 0.453125 -0.375 1.328125q0 0.921875 0.34375 1.34375q0.328125 0.40625 0.8125 0.40625q0.40625 0 0.671875 -0.296875q0.265625 -0.28125 0.546875 -1.515625q0.28125 -1.234375 0.484375 -1.6875q0.3125 -0.671875 0.78125 -0.984375q0.46875 -0.3125 1.078125 -0.3125q0.609375 0 1.15625 0.34375q0.53125 0.34375 0.828125 1.0q0.296875 0.65625 0.296875 1.46875q0 1.046875 -0.296875 1.75q-0.296875 0.6875 -0.90625 1.09375q-0.609375 0.390625 -1.375 0.40625z" fill-rule="nonzero"/><path fill="#000000" fill-opacity="0.0" d="m244.85895 224.77481l79.03079 0l0 37.406708l-79.03079 0z" fill-rule="evenodd"/><path fill="#434343" d="m267.4464 238.01482l0 -7.625l5.515625 0l0 0.890625l-4.5 0l0 2.34375l4.21875 0l0 0.890625l-4.21875 0l0 2.59375l4.671875 0l0 0.90625l-5.6875 0zm6.9670105 2.125l0 -7.65625l0.859375 0l0 0.71875q0.296875 -0.421875 0.671875 -0.625q0.390625 -0.21875 0.921875 -0.21875q0.703125 0 1.25 0.375q0.546875 0.359375 0.8125 1.03125q0.28125 0.65625 0.28125 1.453125q0 0.84375 -0.3125 1.53125q-0.296875 0.671875 -0.875 1.03125q-0.578125 0.359375 -1.21875 0.359375q-0.46875 0 -0.84375 -0.1875q-0.375 -0.203125 -0.609375 -0.515625l0 2.703125l-0.9375 0zm0.84375 -4.859375q0 1.0625 0.4375 1.578125q0.4375 0.515625 1.046875 0.515625q0.625 0 1.0625 -0.53125q0.453125 -0.53125 0.453125 -1.640625q0 -1.046875 -0.4375 -1.578125q-0.4375 -0.53125 -1.046875 -0.53125q-0.59375 0 -1.0625 0.5625q-0.453125 0.5625 -0.453125 1.625zm4.738983 -0.03125q0 -1.53125 0.84375 -2.265625q0.71875 -0.625 1.734375 -0.625q1.140625 0 1.859375 0.75q0.734375 0.75 0.734375 2.0625q0 1.0625 -0.328125 1.6875q-0.3125 0.609375 -0.921875 0.953125q-0.609375 0.328125 -1.34375 0.328125q-1.15625 0 -1.875 -0.734375q-0.703125 -0.75 -0.703125 -2.15625zm0.953125 0q0 1.0625 0.46875 1.59375q0.46875 0.53125 1.15625 0.53125q0.703125 0 1.15625 -0.53125q0.46875 -0.53125 0.46875 -1.625q0 -1.015625 -0.46875 -1.546875q-0.453125 -0.53125 -1.15625 -0.53125q-0.6875 0 -1.15625 0.53125q-0.46875 0.515625 -0.46875 1.578125zm8.926514 0.734375l0.921875 0.125q-0.15625 0.953125 -0.78125 1.5q-0.625 0.53125 -1.53125 0.53125q-1.125 0 -1.8125 -0.734375q-0.6875 -0.75 -0.6875 -2.125q0 -0.90625 0.296875 -1.578125q0.296875 -0.671875 0.890625 -1.0q0.609375 -0.34375 1.328125 -0.34375q0.890625 0 1.46875 0.46875q0.578125 0.453125 0.734375 1.28125l-0.90625 0.140625q-0.140625 -0.546875 -0.46875 -0.828125q-0.328125 -0.28125 -0.796875 -0.28125q-0.703125 0 -1.15625 0.515625q-0.4375 0.5 -0.4375 1.59375q0 1.109375 0.421875 1.625q0.4375 0.5 1.125 0.5q0.546875 0 0.90625 -0.34375q0.375 -0.34375 0.484375 -1.046875zm1.71875 2.03125l0 -7.625l0.9375 0l0 2.734375q0.65625 -0.765625 1.65625 -0.765625q0.609375 0 1.0625 0.25q0.453125 0.234375 0.640625 0.671875q0.203125 0.421875 0.203125 1.234375l0 3.5l-0.9375 0l0 -3.5q0 -0.703125 -0.3125 -1.015625q-0.296875 -0.328125 -0.859375 -0.328125q-0.40625 0 -0.78125 0.21875q-0.359375 0.21875 -0.515625 0.59375q-0.15625 0.359375 -0.15625 1.015625l0 3.015625l-0.9375 0zm5.551483 -1.65625l0.921875 -0.140625q0.078125 0.5625 0.4375 0.859375q0.359375 0.296875 1.0 0.296875q0.640625 0 0.953125 -0.265625q0.3125 -0.265625 0.3125 -0.625q0 -0.3125 -0.28125 -0.5q-0.1875 -0.125 -0.953125 -0.3125q-1.03125 -0.265625 -1.4375 -0.453125q-0.390625 -0.1875 -0.59375 -0.515625q-0.203125 -0.34375 -0.203125 -0.75q0 -0.359375 0.171875 -0.671875q0.171875 -0.328125 0.453125 -0.53125q0.21875 -0.15625 0.59375 -0.265625q0.390625 -0.125 0.8125 -0.125q0.65625 0 1.140625 0.1875q0.5 0.1875 0.734375 0.515625q0.234375 0.3125 0.3125 0.859375l-0.90625 0.125q-0.0625 -0.4375 -0.375 -0.671875q-0.296875 -0.234375 -0.828125 -0.234375q-0.65625 0 -0.9375 0.21875q-0.265625 0.203125 -0.265625 0.484375q0 0.1875 0.109375 0.328125q0.125 0.15625 0.359375 0.25q0.140625 0.0625 0.828125 0.25q1.0 0.265625 1.390625 0.4375q0.390625 0.15625 0.609375 0.484375q0.234375 0.3125 0.234375 0.796875q0 0.46875 -0.28125 0.890625q-0.265625 0.40625 -0.78125 0.640625q-0.515625 0.21875 -1.171875 0.21875q-1.078125 0 -1.640625 -0.4375q-0.5625 -0.453125 -0.71875 -1.34375z" fill-rule="nonzero"/><path fill="#000000" fill-opacity="0.0" d="m111.61169 84.51225l44.188972 0l0 29.952759l-44.188972 0z" fill-rule="evenodd"/><path fill="#434343" d="m117.73669 100.312256l0 -7.921875l-2.84375 0l0 -1.625l7.59375 0l0 1.625l-2.828125 0l0 7.921875l-1.921875 0zm6.9838104 0l-1.828125 0l0 -6.90625l1.703125 0l0 0.984375q0.4375 -0.703125 0.78125 -0.921875q0.34375 -0.21875 0.796875 -0.21875q0.625 0 1.203125 0.34375l-0.5625 1.59375q-0.46875 -0.296875 -0.859375 -0.296875q-0.390625 0 -0.65625 0.21875q-0.265625 0.203125 -0.421875 0.765625q-0.15625 0.546875 -0.15625 2.296875l0 2.140625zm4.811775 -4.796875l-1.6718674 -0.3125q0.28124237 -1.0 0.9687424 -1.46875q0.6875 -0.484375 2.03125 -0.484375q1.21875 0 1.8125 0.296875q0.609375 0.28125 0.84375 0.734375q0.25 0.4375 0.25 1.625l-0.015625 2.140625q0 0.90625 0.078125 1.34375q0.09375 0.421875 0.34375 0.921875l-1.8125 0q-0.078125 -0.1875 -0.171875 -0.546875q-0.046875 -0.15625 -0.078125 -0.203125q-0.46875 0.453125 -1.0 0.6875q-0.53125 0.21875 -1.140625 0.21875q-1.0625 0 -1.6875 -0.578125q-0.6093674 -0.578125 -0.6093674 -1.46875q0 -0.578125 0.28125 -1.03125q0.28124237 -0.46875 0.7812424 -0.703125q0.515625 -0.25 1.46875 -0.4375q1.28125 -0.234375 1.765625 -0.453125l0 -0.171875q0 -0.53125 -0.265625 -0.75q-0.25 -0.234375 -0.96875 -0.234375q-0.484375 0 -0.765625 0.203125q-0.265625 0.1875 -0.4375 0.671875zm2.4375 1.484375q-0.34375 0.109375 -1.109375 0.28125q-0.765625 0.15625 -1.0 0.3125q-0.359375 0.25 -0.359375 0.640625q0 0.390625 0.28125 0.671875q0.296875 0.28125 0.734375 0.28125q0.5 0 0.953125 -0.328125q0.328125 -0.25 0.4375 -0.609375q0.0625 -0.234375 0.0625 -0.890625l0 -0.359375zm3.5999756 -4.53125l0 -1.703125l1.828125 0l0 1.703125l-1.828125 0zm0 7.84375l0 -6.90625l1.828125 0l0 6.90625l-1.828125 0zm9.999863 0l-1.828125 0l0 -3.53125q0 -1.109375 -0.125 -1.4375q-0.109375 -0.328125 -0.375 -0.515625q-0.265625 -0.1875 -0.640625 -0.1875q-0.46875 0 -0.859375 0.265625q-0.375 0.265625 -0.515625 0.703125q-0.140625 0.421875 -0.140625 1.578125l0 3.125l-1.828125 0l0 -6.90625l1.703125 0l0 1.015625q0.90625 -1.171875 2.28125 -1.171875q0.609375 0 1.109375 0.21875q0.5 0.21875 0.75 0.5625q0.265625 0.328125 0.359375 0.765625q0.109375 0.421875 0.109375 1.21875l0 4.296875z" fill-rule="nonzero"/><path fill="#fedfc8" d="m10.040808 39.88364l0 0c0 -7.1639023 5.8074884 -12.97139 12.971388 -12.97139l51.884 0l0 0c3.4402237 0 6.7395477 1.3666248 9.172157 3.7992306c2.432602 2.4326077 3.7992249 5.7319317 3.7992249 9.172159l0 123.632034c0 7.1638947 -5.8074875 12.97139 -12.971382 12.97139l-51.884 0c-7.1638994 0 -12.971388 -5.807495 -12.971388 -12.97139z" fill-rule="evenodd"/><path stroke="#fdc69c" stroke-width="1.0" stroke-linejoin="round" stroke-linecap="butt" d="m10.040808 39.88364l0 0c0 -7.1639023 5.8074884 -12.97139 12.971388 -12.97139l51.884 0l0 0c3.4402237 0 6.7395477 1.3666248 9.172157 3.7992306c2.432602 2.4326077 3.7992249 5.7319317 3.7992249 9.172159l0 123.632034c0 7.1638947 -5.8074875 12.97139 -12.971382 12.97139l-51.884 0c-7.1638994 0 -12.971388 -5.807495 -12.971388 -12.97139z" fill-rule="evenodd"/><path fill="#434343" d="m35.36405 106.49965l-2.28125 -9.546875l1.96875 0l1.4375 6.5625l1.75 -6.5625l2.28125 0l1.671875 6.671875l1.46875 -6.671875l1.9375 0l-2.3125 9.546875l-2.046875 0l-1.890625 -7.125l-1.90625 7.125l-2.078125 0zm15.657852 -3.5l0 -1.609375l4.15625 0l0 3.796875q-0.609375 0.578125 -1.765625 1.03125q-1.140625 0.4375 -2.3125 0.4375q-1.5 0 -2.625 -0.625q-1.109375 -0.625 -1.671875 -1.78125q-0.546875 -1.171875 -0.546875 -2.546875q0 -1.5 0.625 -2.65625q0.625 -1.15625 1.828125 -1.78125q0.921875 -0.46875 2.28125 -0.46875q1.78125 0 2.78125 0.75q1.0 0.734375 1.28125 2.0625l-1.921875 0.34375q-0.1875 -0.703125 -0.75 -1.109375q-0.5625 -0.40625 -1.390625 -0.40625q-1.265625 0 -2.015625 0.8125q-0.734375 0.796875 -0.734375 2.375q0 1.6875 0.75 2.546875q0.75 0.84375 1.984375 0.84375q0.609375 0 1.203125 -0.234375q0.609375 -0.234375 1.046875 -0.578125l0 -1.203125l-2.203125 0zm5.445175 0.390625l1.875 -0.171875q0.171875 0.9375 0.6875 1.390625q0.515625 0.4375 1.390625 0.4375q0.9375 0 1.40625 -0.390625q0.46875 -0.40625 0.46875 -0.921875q0 -0.34375 -0.203125 -0.578125q-0.1875 -0.234375 -0.6875 -0.421875q-0.34375 -0.109375 -1.546875 -0.40625q-1.546875 -0.390625 -2.171875 -0.953125q-0.875 -0.78125 -0.875 -1.921875q0 -0.71875 0.40625 -1.359375q0.421875 -0.640625 1.1875 -0.96875q0.78125 -0.328125 1.890625 -0.328125q1.796875 0 2.703125 0.796875q0.90625 0.78125 0.953125 2.09375l-1.921875 0.078125q-0.125 -0.734375 -0.53125 -1.046875q-0.40625 -0.328125 -1.234375 -0.328125q-0.828125 0 -1.3125 0.34375q-0.296875 0.21875 -0.296875 0.59375q0 0.34375 0.28125 0.578125q0.359375 0.3125 1.765625 0.640625q1.40625 0.328125 2.078125 0.6875q0.6875 0.359375 1.0625 0.96875q0.375 0.609375 0.375 1.515625q0 0.828125 -0.453125 1.546875q-0.453125 0.703125 -1.296875 1.0625q-0.828125 0.34375 -2.0625 0.34375q-1.8125 0 -2.78125 -0.828125q-0.96875 -0.84375 -1.15625 -2.453125z" fill-rule="nonzero"/><path fill="#d9d2e9" d="m10.041529 199.95653l0 0c0 -6.8536835 5.556011 -12.4096985 12.409697 -12.4096985l53.007378 0l0 0c3.2912598 0 6.4477158 1.3074493 8.774979 3.6347198c2.3272705 2.3272705 3.6347198 5.483734 3.6347198 8.774979l0 49.6373c0 6.8536835 -5.556015 12.409714 -12.4096985 12.409714l-53.007378 0c-6.8536854 0 -12.409697 -5.5560303 -12.409697 -12.409714z" fill-rule="evenodd"/><path stroke="#b4a7d6" stroke-width="1.0" stroke-linejoin="round" stroke-linecap="butt" d="m10.041529 199.95653l0 0c0 -6.8536835 5.556011 -12.4096985 12.409697 -12.4096985l53.007378 0l0 0c3.2912598 0 6.4477158 1.3074493 8.774979 3.6347198c2.3272705 2.3272705 3.6347198 5.483734 3.6347198 8.774979l0 49.6373c0 6.8536835 -5.556015 12.409714 -12.4096985 12.409714l-53.007378 0c-6.8536854 0 -12.409697 -5.5560303 -12.409697 -12.409714z" fill-rule="evenodd"/><path fill="#434343" d="m36.10342 229.57518l-2.28125 -9.546875l1.96875 0l1.4375 6.5625l1.75 -6.5625l2.28125 0l1.671875 6.671875l1.46875 -6.671875l1.9375 0l-2.3125 9.546875l-2.046875 0l-1.890625 -7.125l-1.90625 7.125l-2.078125 0zm11.220352 0l0 -9.546875l7.078125 0l0 1.625l-5.15625 0l0 2.109375l4.796875 0l0 1.609375l-4.796875 0l0 2.59375l5.328125 0l0 1.609375l-7.25 0zm8.40538 -3.109375l1.875 -0.171875q0.171875 0.9375 0.6875 1.390625q0.515625 0.4375 1.390625 0.4375q0.9375 0 1.40625 -0.390625q0.46875 -0.40625 0.46875 -0.921875q0 -0.34375 -0.203125 -0.578125q-0.1875 -0.234375 -0.6875 -0.421875q-0.34375 -0.109375 -1.546875 -0.40625q-1.546875 -0.390625 -2.171875 -0.953125q-0.875 -0.78125 -0.875 -1.921875q0 -0.71875 0.40625 -1.359375q0.421875 -0.640625 1.1875 -0.96875q0.78125 -0.328125 1.890625 -0.328125q1.796875 0 2.703125 0.796875q0.90625 0.78125 0.953125 2.09375l-1.921875 0.078125q-0.125 -0.734375 -0.53125 -1.046875q-0.40625 -0.328125 -1.234375 -0.328125q-0.828125 0 -1.3125 0.34375q-0.296875 0.21875 -0.296875 0.59375q0 0.34375 0.28125 0.578125q0.359375 0.3125 1.765625 0.640625q1.40625 0.328125 2.078125 0.6875q0.6875 0.359375 1.0625 0.96875q0.375 0.609375 0.375 1.515625q0 0.828125 -0.453125 1.546875q-0.453125 0.703125 -1.296875 1.0625q-0.828125 0.34375 -2.0625 0.34375q-1.8125 0 -2.78125 -0.828125q-0.96875 -0.84375 -1.15625 -2.453125z" fill-rule="nonzero"/><path fill="#6fa8dc" d="m262.12082 99.38529l6.7290344 -0.12771606l2.1843262 -7.3672256l2.1843262 7.3672256l6.7290344 0.12771606l-5.3790283 4.680908l1.9744263 7.4461517l-5.5087585 -4.474266l-5.5087585 4.474266l1.9744263 -7.4461517z" fill-rule="evenodd"/><path fill="#000000" fill-opacity="0.0" d="m87.8683 224.77518c20.035362 0 30.05104 -20.078735 40.070724 -40.15747c10.019684 -20.07875 20.04338 -40.157486 40.08676 -40.157486" fill-rule="evenodd"/><path stroke="#666666" stroke-width="1.0" stroke-linejoin="round" stroke-linecap="butt" d="m87.8683 224.77518c20.035362 0 30.05104 -20.078735 40.070724 -40.15747c10.019684 -20.07875 20.04338 -40.157486 40.08676 -40.157486" fill-rule="evenodd"/><path fill="#000000" fill-opacity="0.0" d="m87.86758 101.69965c20.035767 0 30.051842 10.692909 40.071526 21.385826c10.019684 10.692917 20.042984 21.385818 40.085953 21.385818" fill-rule="evenodd"/><path stroke="#666666" stroke-width="1.0" stroke-linejoin="round" stroke-linecap="butt" d="m87.86758 101.69965c20.035767 0 30.051842 10.692909 40.071526 21.385826c10.019684 10.692917 20.042984 21.385818 40.085953 21.385818" fill-rule="evenodd"/></g></svg>