<svg version="1.1" viewBox="0.0 0.0 576.0 288.0" fill="none" stroke="none" stroke-linecap="square" stroke-miterlimit="10" xmlns:xlink="http://www.w3.org/1999/xlink" xmlns="http://www.w3.org/2000/svg"><clipPath id="p.0"><path d="m0 0l576.0 0l0 288.0l-576.0 0l0 -288.0z" clip-rule="nonzero"/></clipPath><g clip-path="url(#p.0)"><path fill="#000000" fill-opacity="0.0" d="m0 0l576.0 0l0 288.0l-576.0 0z" fill-rule="evenodd"/><path fill="#000000" fill-opacity="0.0" d="m217.80194 196.27934l31.622055 0.06300354" fill-rule="evenodd"/><path stroke="#666666" stroke-width="1.0" stroke-linejoin="round" stroke-linecap="butt" d="m217.80194 196.27934l25.62207 0.05104065" fill-rule="evenodd"/><path fill="#666666" stroke="#666666" stroke-width="1.0" stroke-linecap="butt" d="m243.42072 197.98212l4.5413666 -1.6427002l-4.53479 -1.6607666z" fill-rule="evenodd"/><path fill="#000000" fill-opacity="0.0" d="m195.06702 67.66018l54.362213 -0.3149643" fill-rule="evenodd"/><path stroke="#666666" stroke-width="1.0" stroke-linejoin="round" stroke-linecap="butt" d="m195.06702 67.66018l48.362305 -0.28020477" fill-rule="evenodd"/><path fill="#666666" stroke="#666666" stroke-width="1.0" stroke-linecap="butt" d="m243.43889 69.031685l4.5284424 -1.6780014l-4.547577 -1.625412z" fill-rule="evenodd"/><path fill="#000000" fill-opacity="0.0" d="m330.24442 140.59001l46.771637 -0.47244263" fill-rule="evenodd"/><path stroke="#666666" stroke-width="1.0" stroke-linejoin="round" stroke-linecap="butt" d="m330.24442 140.59001l40.771942 -0.41183472" fill-rule="evenodd"/><path fill="#666666" stroke="#666666" stroke-width="1.0" stroke-linecap="butt" d="m371.03305 141.82982l4.5212097 -1.6974792l-4.5545654 -1.6058197z" fill-rule="evenodd"/><path fill="#000000" fill-opacity="0.0" d="m272.13385 140.20386l31.62207 0.28346252" fill-rule="evenodd"/><path stroke="#666666" stroke-width="1.0" stroke-linejoin="round" stroke-linecap="butt" d="m272.13385 140.20386l25.622314 0.2296753" fill-rule="evenodd"/><path fill="#666666" stroke="#666666" stroke-width="1.0" stroke-linecap="butt" d="m297.74133 142.0852l4.5527344 -1.6109924l-4.523102 -1.692337z" fill-rule="evenodd"/><path fill="#efefef" d="m32.56503 202.70908l0 0c-3.0778294 0 -5.5722733 -2.4950714 -5.571495 -5.572891l0.028680801 -113.51562c3.7193298E-4 -1.4780273 0.58787346 -2.8955154 1.6332607 -3.9406357c1.0453854 -1.0451279 2.4630222 -1.6322708 3.9410477 -1.6322708l42.051044 0c3.077835 0 5.5722733 2.495079 5.571495 5.5729065l-0.028678894 113.51562c-7.7819824E-4 3.0778198 -2.4964828 5.572891 -5.5743103 5.572891z" fill-rule="evenodd"/><path stroke="#b7b7b7" stroke-width="1.0" stroke-linejoin="round" stroke-linecap="butt" d="m32.56503 202.70908l0 0c-3.0778294 0 -5.5722733 -2.4950714 -5.571495 -5.572891l0.028680801 -113.51562c3.7193298E-4 -1.4780273 0.58787346 -2.8955154 1.6332607 -3.9406357c1.0453854 -1.0451279 2.4630222 -1.6322708 3.9410477 -1.6322708l42.051044 0c3.077835 0 5.5722733 2.495079 5.571495 5.5729065l-0.028678894 113.51562c-7.7819824E-4 3.0778198 -2.4964828 5.572891 -5.5743103 5.572891z" fill-rule="evenodd"/><path fill="#434343" d="m58.39868 170.52704l-9.546875 0l0.001789093 -7.078125l1.625 0l-0.0013046265 5.15625l2.109375 0l0.0012130737 -4.796875l1.609375 0l-0.0012130737 4.796875l2.59375 0l0.0013465881 -5.328125l1.609375 0l-0.0018310547 7.25zm0.0020217896 -7.9991302l-3.5618706 -2.5l-3.3443527 2.390625l5.645752E-4 -2.234375l1.890934 -1.21875l-1.8903046 -1.28125l5.455017E-4 -2.15625l3.2650337 2.34375l3.6412697 -2.546875l-5.645752E-4 2.234375l-2.1409798 1.40625l2.1402626 1.421875l-5.378723E-4 2.140625zm-4.7944336 -9.662476l-0.31292343 1.671875q-0.9999275 -0.28125 -1.4685059 -0.96875q-0.48419952 -0.6875 -0.48386002 -2.03125q3.0517578E-4 -1.21875 0.29733276 -1.8125q0.2814026 -0.609375 0.7345886 -0.84375q0.43756104 -0.25 1.625061 -0.25l2.1406212 0.015625q0.90625 0 1.3437691 -0.078125q0.4218979 -0.09375 0.92196274 -0.34375l-4.5776367E-4 1.8125q-0.18751907 0.078125 -0.54691696 0.171875q-0.15626526 0.046875 -0.20314789 0.078125q0.45300674 0.46875 0.68724823 1.0q0.21861649 0.53125 0.2184639 1.140625q-2.708435E-4 1.0625 -0.57855225 1.6875q-0.5782776 0.609375 -1.4689026 0.609375q-0.578125 0 -1.0311813 -0.28125q-0.46867752 -0.28125 -0.70292664 -0.78125q-0.2498703 -0.515625 -0.43712997 -1.46875q-0.23405075 -1.28125 -0.45267868 -1.765625l-0.171875 0q-0.53125 0 -0.75006866 0.265625q-0.23443604 0.25 -0.23461914 0.96875q-1.2207031E-4 0.484375 0.20293427 0.765625q0.18743134 0.265625 0.6717644 0.4375zm1.4849892 -2.4375q0.10928726 0.34375 0.28097153 1.109375q0.15605545 0.765625 0.31224442 1.0q0.24991226 0.359375 0.64053726 0.359375q0.390625 0 0.67194366 -0.28125q0.2813263 -0.296875 0.28143692 -0.734375q1.2588501E-4 -0.5 -0.32788467 -0.953125q-0.24991608 -0.328125 -0.6092644 -0.4375q-0.23435974 -0.0625 -0.89060974 -0.0625l-0.359375 0zm-3.5928764 -3.4593506l4.272461E-4 -1.6875l0.9375 0q-1.0935211 -0.90625 -1.0932045 -2.15625q1.6784668E-4 -0.671875 0.28153992 -1.15625q0.26574707 -0.484375 0.8127022 -0.796875q-0.54676056 -0.453125 -0.81225204 -0.984375q-0.2811165 -0.53125 -0.2809639 -1.125q1.9454956E-4 -0.765625 0.31282425 -1.28125q0.2970085 -0.53123474 0.90644836 -0.79685974q0.4375496 -0.1875 1.4219246 -0.1875l4.421875 0l-4.6157837E-4 1.8281097l-3.953125 0q-1.03125 0 -1.3281746 0.1875q-0.39068604 0.25 -0.39081955 0.78125q-9.918213E-5 0.390625 0.23418808 0.734375q0.23429108 0.328125 0.6873779 0.484375q0.45309067 0.140625 1.4374657 0.140625l3.3125 0l-4.6157837E-4 1.828125l-3.78125 0q-1.015625 0 -1.2969055 0.109375q-0.2968979 0.09375 -0.43757248 0.296875q-0.1563034 0.203125 -0.15639114 0.546875q-1.0681152E-4 0.421875 0.23418427 0.765625q0.21866226 0.34375 0.6561279 0.484375q0.42183685 0.140625 1.4218369 0.140625l3.359375 0l-4.6539307E-4 1.84375l-6.90625 0zm0.0030174255 -11.94458l4.310608E-4 -1.703125l1.015625 0q-0.5311661 -0.328125 -0.84352493 -0.890625q-0.32798004 -0.578125 -0.32780457 -1.265625q3.0517578E-4 -1.203125 0.93801117 -2.03125q0.9377136 -0.84375 2.6252136 -0.84375q1.734375 0 2.7029114 0.84375q0.9529152 0.84375 0.95261 2.046875q-1.449585E-4 0.578125 -0.21901321 1.046875q-0.23448944 0.453125 -0.79712296 0.96875l3.484375 0l-4.6157837E-4 1.828125l-9.53125 0zm3.3285828 -1.8125q1.171875 0 1.7344894 -0.453125q0.54699326 -0.46875 0.5471611 -1.125q1.6021729E-4 -0.640625 -0.49973297 -1.0625q-0.5155182 -0.421875 -1.6873932 -0.421875q-1.078125 0 -1.6094856 0.4375q-0.5313606 0.4375 -0.53152084 1.078125q-1.7166138E-4 0.671875 0.5153427 1.109375q0.5155144 0.4375 1.5311394 0.4375zm3.5797386 -6.37574l-9.546875 0l4.6157837E-4 -1.828125l9.546875 0l-4.6157837E-4 1.828125zm-2.2011795 -7.7029877l0.31296158 -1.828125q0.99991226 0.34375 1.5309677 1.109375q0.51543427 0.765625 0.51514816 1.890625q-4.5776367E-4 1.8125 -1.1725502 2.671875q-0.95329666 0.6875 -2.3907967 0.6875q-1.71875 0 -2.687275 -0.890625q-0.9685211 -0.90625 -0.968174 -2.28125q3.8909912E-4 -1.546875 1.0162392 -2.4375q1.0158501 -0.890625 3.1252136 -0.84375l-0.0011558533 4.578125q0.8125038 -0.015625 1.2657356 -0.4375q0.4532318 -0.421875 0.45339203 -1.0625q1.0681152E-4 -0.421875 -0.2341919 -0.71875q-0.2342987 -0.296875 -0.7655144 -0.4375zm-1.8437233 -0.109375q-0.7968788 0.015625 -1.203228 0.40625q-0.42197418 0.390625 -0.42211533 0.953125q-1.487732E-4 0.59375 0.43725204 0.984375q0.43740082 0.390625 1.1874008 0.390625l6.904602E-4 -2.734375zm2.0787964 -2.6624756l-0.28078842 -1.828125q0.53128433 -0.125 0.8126259 -0.484375q0.26571274 -0.359375 0.26587677 -1.0q1.7547607E-4 -0.703125 -0.24973297 -1.0625q-0.18743515 -0.25 -0.48431015 -0.25q-0.21875 0 -0.35941315 0.140625q-0.12503052 0.125 -0.23452759 0.609375q-0.48493195 2.203125 -0.8913307 2.796875q-0.5627098 0.828125 -1.5627098 0.828125q-0.890625 0 -1.4998245 -0.703125q-0.6091919 -0.71875 -0.60881805 -2.203125q3.6239624E-4 -1.421875 0.46928406 -2.109375q0.4533043 -0.703125 1.3596153 -0.953125l0.31206512 1.71875q-0.4062767 0.109375 -0.6094818 0.421875q-0.2188263 0.3125 -0.21897507 0.890625q-1.7929077E-4 0.71875 0.2028656 1.03125q0.14057541 0.203125 0.3593254 0.203125q0.203125 0 0.34379578 -0.1875q0.17193604 -0.234375 0.51605225 -1.6875q0.32849503 -1.46875 0.8130226 -2.0625q0.48451614 -0.5625 1.3595161 -0.5625q0.953125 0 1.6404228 0.796875q0.67167664 0.78125 0.6712837 2.34375q-3.5476685E-4 1.40625 -0.5630646 2.234375q-0.5783348 0.828125 -1.5627747 1.078125z" fill-rule="nonzero"/><path fill="#efefef" d="m451.35126 31.494455l0 0c0 -4.768141 3.8653564 -8.629839 8.633484 -8.625343l65.14502 0.061431885c2.289734 0.0021591187 4.485718 0.913826 6.1047974 2.5344448c1.6190796 1.6206188 2.5286865 3.8174381 2.5286865 6.1071815l0 226.01477c0 4.768158 -3.8653564 8.629852 -8.633484 8.625366l-65.14502 -0.061431885c-4.7681274 -0.0045166016 -8.633484 -3.8735046 -8.633484 -8.641632z" fill-rule="evenodd"/><path stroke="#b7b7b7" stroke-width="1.0" stroke-linejoin="round" stroke-linecap="butt" d="m451.35126 31.494455l0 0c0 -4.768141 3.8653564 -8.629839 8.633484 -8.625343l65.14502 0.061431885c2.289734 0.0021591187 4.485718 0.913826 6.1047974 2.5344448c1.6190796 1.6206188 2.5286865 3.8174381 2.5286865 6.1071815l0 226.01477c0 4.768158 -3.8653564 8.629852 -8.633484 8.625366l-65.14502 -0.061431885c-4.7681274 -0.0045166016 -8.633484 -3.8735046 -8.633484 -8.641632z" fill-rule="evenodd"/><path fill="#000000" fill-opacity="0.0" d="m443.2541 65.74257l98.60535 0l0 171.43573l-98.60535 0z" fill-rule="evenodd"/><path fill="#434343" d="m471.753 82.542564l0 -4.3125q0 -1.078125 -0.796875 -1.078125q-0.40625 0 -0.78125 0.328125q-0.359375 0.3125 -0.765625 0.875l0 4.1875l-1.59375 0l0 -9.203125l1.59375 0l0 2.265625l-0.078125 1.203125q0.1875 -0.234375 0.390625 -0.421875q0.21875 -0.203125 0.453125 -0.328125q0.25 -0.140625 0.53125 -0.203125q0.28125 -0.0625 0.609375 -0.0625q0.515625 0 0.890625 0.171875q0.375 0.15625 0.625 0.46875q0.265625 0.296875 0.390625 0.71875q0.125 0.421875 0.125 0.953125l0 4.4375l-1.59375 0zm9.343475 -3.359375q0 0.78125 -0.21875 1.4375q-0.21875 0.640625 -0.640625 1.109375q-0.421875 0.453125 -1.03125 0.71875q-0.59375 0.25 -1.375 0.25q-0.734375 0 -1.3125 -0.21875q-0.578125 -0.21875 -0.984375 -0.640625q-0.40625 -0.421875 -0.625 -1.0625q-0.203125 -0.65625 -0.203125 -1.5q0 -0.78125 0.21875 -1.421875q0.234375 -0.65625 0.640625 -1.109375q0.421875 -0.453125 1.03125 -0.703125q0.609375 -0.25 1.375 -0.25q0.734375 0 1.3125 0.21875q0.578125 0.21875 0.984375 0.65625q0.40625 0.421875 0.609375 1.0625q0.21875 0.625 0.21875 1.453125zm-1.65625 0.046875q0 -1.03125 -0.390625 -1.546875q-0.375 -0.515625 -1.140625 -0.515625q-0.40625 0 -0.703125 0.15625q-0.296875 0.15625 -0.484375 0.453125q-0.1875 0.28125 -0.28125 0.65625q-0.078125 0.375 -0.078125 0.796875q0 1.046875 0.40625 1.578125q0.421875 0.515625 1.140625 0.515625q0.40625 0 0.6875 -0.15625q0.296875 -0.171875 0.484375 -0.453125q0.1875 -0.28125 0.265625 -0.65625q0.09375 -0.390625 0.09375 -0.828125zm7.702881 3.3125l0 -4.5q0 -0.25 -0.015625 -0.4375q-0.015625 -0.1875 -0.0625 -0.3125q-0.03125 -0.125 -0.109375 -0.1875q-0.078125 -0.0625 -0.203125 -0.0625q-0.203125 0 -0.40625 0.28125q-0.1875 0.265625 -0.4375 0.9375l0 4.28125l-1.359375 0l0 -4.5q0 -0.25 -0.015625 -0.4375q0 -0.1875 -0.046875 -0.3125q-0.03125 -0.125 -0.109375 -0.1875q-0.078125 -0.0625 -0.21875 -0.0625q-0.171875 0 -0.375 0.28125q-0.203125 0.265625 -0.46875 0.9375l0 4.28125l-1.359375 0l0 -6.609375l1.171875 0l0.03125 0.953125q0.140625 -0.28125 0.28125 -0.484375q0.140625 -0.21875 0.296875 -0.34375q0.171875 -0.140625 0.359375 -0.1875q0.1875 -0.0625 0.421875 -0.0625q0.546875 0 0.828125 0.296875q0.296875 0.28125 0.34375 0.78125q0.15625 -0.28125 0.296875 -0.484375q0.15625 -0.21875 0.3125 -0.34375q0.171875 -0.140625 0.359375 -0.1875q0.203125 -0.0625 0.4375 -0.0625q0.71875 0 1.0625 0.5q0.34375 0.5 0.34375 1.484375l0 4.75l-1.359375 0zm3.3903503 -2.84375l0 -1.40625l4.046875 0l0 1.40625l-4.046875 0zm10.843506 -1.203125q0.015625 -0.359375 -0.03125 -0.625q-0.046875 -0.265625 -0.15625 -0.421875q-0.109375 -0.171875 -0.265625 -0.25q-0.15625 -0.078125 -0.359375 -0.078125q-0.34375 0 -0.71875 0.296875q-0.375 0.28125 -0.828125 0.9375l0 4.1875l-1.625 0l0 -6.609375l1.4375 0l0.0625 0.953125q0.15625 -0.25 0.359375 -0.453125q0.203125 -0.203125 0.453125 -0.34375q0.25 -0.140625 0.5625 -0.21875q0.3125 -0.078125 0.671875 -0.078125q0.5 0 0.890625 0.171875q0.390625 0.171875 0.640625 0.515625q0.265625 0.328125 0.390625 0.84375q0.140625 0.5 0.109375 1.171875l-1.59375 0zm8.843475 0.234375q0 0.15625 -0.015625 0.421875q-0.015625 0.265625 -0.03125 0.484375l-4.34375 0q0 0.4375 0.125 0.78125q0.140625 0.328125 0.375 0.546875q0.25 0.21875 0.59375 0.34375q0.34375 0.109375 0.75 0.109375q0.484375 0 1.03125 -0.0625q0.5625 -0.078125 1.15625 -0.25l0 1.265625q-0.265625 0.0625 -0.5625 0.125q-0.296875 0.0625 -0.609375 0.109375q-0.3125 0.046875 -0.640625 0.0625q-0.3125 0.03125 -0.609375 0.03125q-0.75 0 -1.359375 -0.21875q-0.59375 -0.21875 -1.015625 -0.640625q-0.40625 -0.421875 -0.640625 -1.03125q-0.21875 -0.625 -0.21875 -1.4375q0 -0.796875 0.21875 -1.453125q0.234375 -0.671875 0.625 -1.140625q0.40625 -0.46875 0.984375 -0.71875q0.578125 -0.265625 1.296875 -0.265625q0.703125 0 1.234375 0.21875q0.546875 0.21875 0.90625 0.609375q0.359375 0.390625 0.546875 0.9375q0.203125 0.53125 0.203125 1.171875zm-1.625 -0.234375q0.015625 -0.390625 -0.09375 -0.671875q-0.109375 -0.296875 -0.296875 -0.484375q-0.171875 -0.1875 -0.40625 -0.28125q-0.234375 -0.09375 -0.515625 -0.09375q-0.59375 0 -0.984375 0.40625q-0.375 0.40625 -0.453125 1.125l2.75 0zm9.124725 -3.796875q-0.296875 -0.09375 -0.6875 -0.15625q-0.390625 -0.0625 -0.796875 -0.0625q-0.28125 0 -0.53125 0.078125q-0.234375 0.078125 -0.40625 0.234375q-0.171875 0.15625 -0.28125 0.40625q-0.09375 0.25 -0.09375 0.609375l0 1.078125l2.59375 0l0 1.234375l-2.59375 0l0 4.421875l-1.609375 0l0 -4.421875l-1.9218445 0l0 -1.234375l1.9218445 0l0 -1.015625q0 -0.6875 0.203125 -1.1875q0.203125 -0.515625 0.578125 -0.828125q0.375 -0.328125 0.90625 -0.46875q0.53125 -0.15625 1.171875 -0.15625q0.4375 0 0.828125 0.0625q0.390625 0.046875 0.71875 0.125l0 1.28125zm-6.8437195 1.234375l0 0z" fill-rule="nonzero"/><path fill="#434343" d="m486.40872 146.54257l0 -4.3125q0 -1.078125 -0.796875 -1.078125q-0.40625 0 -0.78125 0.328125q-0.359375 0.3125 -0.765625 0.875l0 4.1875l-1.59375 0l0 -9.203125l1.59375 0l0 2.265625l-0.078125 1.203125q0.1875 -0.234375 0.390625 -0.421875q0.21875 -0.203125 0.453125 -0.328125q0.25 -0.140625 0.53125 -0.203125q0.28125 -0.0625 0.609375 -0.0625q0.515625 0 0.890625 0.171875q0.375 0.15625 0.625 0.46875q0.265625 0.296875 0.390625 0.71875q0.125 0.421875 0.125 0.953125l0 4.4375l-1.59375 0zm9.155975 -3.8125q0 0.15625 -0.015625 0.421875q-0.015625 0.265625 -0.03125 0.484375l-4.34375 0q0 0.4375 0.125 0.78125q0.140625 0.328125 0.375 0.546875q0.25 0.21875 0.59375 0.34375q0.34375 0.109375 0.75 0.109375q0.484375 0 1.03125 -0.0625q0.5625 -0.078125 1.15625 -0.25l0 1.265625q-0.265625 0.0625 -0.5625 0.125q-0.296875 0.0625 -0.609375 0.109375q-0.3125 0.046875 -0.640625 0.0625q-0.3125 0.03125 -0.609375 0.03125q-0.75 0 -1.359375 -0.21875q-0.59375 -0.21875 -1.015625 -0.640625q-0.40625 -0.421875 -0.640625 -1.03125q-0.21875 -0.625 -0.21875 -1.4375q0 -0.796875 0.21875 -1.453125q0.234375 -0.671875 0.625 -1.140625q0.40625 -0.46875 0.984375 -0.71875q0.578125 -0.265625 1.296875 -0.265625q0.703125 0 1.234375 0.21875q0.546875 0.21875 0.90625 0.609375q0.359375 0.390625 0.546875 0.9375q0.203125 0.53125 0.203125 1.171875zm-1.625 -0.234375q0.015625 -0.390625 -0.09375 -0.671875q-0.109375 -0.296875 -0.296875 -0.484375q-0.171875 -0.1875 -0.40625 -0.28125q-0.234375 -0.09375 -0.515625 -0.09375q-0.59375 0 -0.984375 0.40625q-0.375 0.40625 -0.453125 1.125l2.75 0zm8.640381 3.984375q-0.4375 0.09375 -0.875 0.15625q-0.421875 0.0625 -0.8125 0.0625q-0.65625 0 -1.125 -0.140625q-0.46875 -0.140625 -0.78125 -0.421875q-0.3125 -0.28125 -0.46875 -0.703125q-0.140625 -0.4375 -0.140625 -1.03125l0 -3.234375l-1.765625 0l0 -1.234375l1.765625 0l0 -1.6875l1.625 -0.4375l0 2.125l2.578125 0l0 1.234375l-2.578125 0l0 3.109375q0 0.5625 0.265625 0.859375q0.265625 0.28125 0.875 0.28125q0.390625 0 0.75 -0.0625q0.375 -0.0625 0.6875 -0.140625l0 1.265625z" fill-rule="nonzero"/><path fill="#434343" d="m471.753 210.54257l0 -4.3125q0 -1.078125 -0.796875 -1.078125q-0.40625 0 -0.78125 0.328125q-0.359375 0.3125 -0.765625 0.875l0 4.1875l-1.59375 0l0 -9.203125l1.59375 0l0 2.265625l-0.078125 1.203125q0.1875 -0.234375 0.390625 -0.421875q0.21875 -0.203125 0.453125 -0.328125q0.25 -0.140625 0.53125 -0.203125q0.28125 -0.0625 0.609375 -0.0625q0.515625 0 0.890625 0.171875q0.375 0.15625 0.625 0.46875q0.265625 0.296875 0.390625 0.71875q0.125 0.421875 0.125 0.953125l0 4.4375l-1.59375 0zm9.343475 -3.359375q0 0.78125 -0.21875 1.4375q-0.21875 0.640625 -0.640625 1.109375q-0.421875 0.453125 -1.03125 0.71875q-0.59375 0.25 -1.375 0.25q-0.734375 0 -1.3125 -0.21875q-0.578125 -0.21875 -0.984375 -0.640625q-0.40625 -0.421875 -0.625 -1.0625q-0.203125 -0.65625 -0.203125 -1.5q0 -0.78125 0.21875 -1.421875q0.234375 -0.65625 0.640625 -1.109375q0.421875 -0.453125 1.03125 -0.703125q0.609375 -0.25 1.375 -0.25q0.734375 0 1.3125 0.21875q0.578125 0.21875 0.984375 0.65625q0.40625 0.421875 0.609375 1.0625q0.21875 0.625 0.21875 1.453125zm-1.65625 0.046875q0 -1.03125 -0.390625 -1.546875q-0.375 -0.515625 -1.140625 -0.515625q-0.40625 0 -0.703125 0.15625q-0.296875 0.15625 -0.484375 0.453125q-0.1875 0.28125 -0.28125 0.65625q-0.078125 0.375 -0.078125 0.796875q0 1.046875 0.40625 1.578125q0.421875 0.515625 1.140625 0.515625q0.40625 0 0.6875 -0.15625q0.296875 -0.171875 0.484375 -0.453125q0.1875 -0.28125 0.265625 -0.65625q0.09375 -0.390625 0.09375 -0.828125zm7.702881 3.3125l0 -4.5q0 -0.25 -0.015625 -0.4375q-0.015625 -0.1875 -0.0625 -0.3125q-0.03125 -0.125 -0.109375 -0.1875q-0.078125 -0.0625 -0.203125 -0.0625q-0.203125 0 -0.40625 0.28125q-0.1875 0.265625 -0.4375 0.9375l0 4.28125l-1.359375 0l0 -4.5q0 -0.25 -0.015625 -0.4375q0 -0.1875 -0.046875 -0.3125q-0.03125 -0.125 -0.109375 -0.1875q-0.078125 -0.0625 -0.21875 -0.0625q-0.171875 0 -0.375 0.28125q-0.203125 0.265625 -0.46875 0.9375l0 4.28125l-1.359375 0l0 -6.609375l1.171875 0l0.03125 0.953125q0.140625 -0.28125 0.28125 -0.484375q0.140625 -0.21875 0.296875 -0.34375q0.171875 -0.140625 0.359375 -0.1875q0.1875 -0.0625 0.421875 -0.0625q0.546875 0 0.828125 0.296875q0.296875 0.28125 0.34375 0.78125q0.15625 -0.28125 0.296875 -0.484375q0.15625 -0.21875 0.3125 -0.34375q0.171875 -0.140625 0.359375 -0.1875q0.203125 -0.0625 0.4375 -0.0625q0.71875 0 1.0625 0.5q0.34375 0.5 0.34375 1.484375l0 4.75l-1.359375 0zm3.3903503 -2.84375l0 -1.40625l4.046875 0l0 1.40625l-4.046875 0zm10.734131 2.84375l-0.03125 -0.859375q-0.21875 0.21875 -0.453125 0.40625q-0.21875 0.1875 -0.5 0.328125q-0.265625 0.125 -0.59375 0.203125q-0.3125 0.078125 -0.703125 0.078125q-0.5 0 -0.890625 -0.15625q-0.375 -0.15625 -0.640625 -0.421875q-0.265625 -0.265625 -0.40625 -0.640625q-0.125 -0.375 -0.125 -0.828125q0 -0.46875 0.203125 -0.859375q0.203125 -0.40625 0.609375 -0.6875q0.40625 -0.296875 1.015625 -0.453125q0.609375 -0.15625 1.421875 -0.15625l0.875 0l0 -0.40625q0 -0.25 -0.078125 -0.453125q-0.078125 -0.203125 -0.234375 -0.34375q-0.15625 -0.15625 -0.40625 -0.234375q-0.25 -0.078125 -0.625 -0.078125q-0.59375 0 -1.171875 0.140625q-0.5625 0.125 -1.09375 0.375l0 -1.265625q0.484375 -0.203125 1.09375 -0.3125q0.625 -0.125 1.296875 -0.125q0.734375 0 1.265625 0.140625q0.53125 0.140625 0.859375 0.421875q0.34375 0.265625 0.5 0.6875q0.171875 0.421875 0.171875 0.984375l0 4.515625l-1.359375 0zm-0.21875 -2.921875l-0.96875 0q-0.40625 0 -0.6875 0.078125q-0.28125 0.078125 -0.46875 0.21875q-0.171875 0.125 -0.25 0.3125q-0.078125 0.171875 -0.078125 0.375q0 0.40625 0.25 0.625q0.265625 0.203125 0.71875 0.203125q0.328125 0 0.6875 -0.234375q0.359375 -0.25 0.796875 -0.6875l0 -0.890625zm5.5466003 -5.03125l-1.875 0l0 -1.25l3.5 0l0 7.96875l1.90625 0l0 1.234375l-5.640625 0l0 -1.234375l2.109375 0l0 -6.71875zm10.64035 7.890625q-0.4375 0.09375 -0.875 0.15625q-0.421875 0.0625 -0.8125 0.0625q-0.65625 0 -1.125 -0.140625q-0.46875 -0.140625 -0.78125 -0.421875q-0.3125 -0.28125 -0.46875 -0.703125q-0.140625 -0.4375 -0.140625 -1.03125l0 -3.234375l-1.7655945 0l0 -1.234375l1.7655945 0l0 -1.6875l1.625 -0.4375l0 2.125l2.578125 0l0 1.234375l-2.578125 0l0 3.109375q0 0.5625 0.265625 0.859375q0.265625 0.28125 0.875 0.28125q0.390625 0 0.75 -0.0625q0.375 -0.0625 0.6875 -0.140625l0 1.265625z" fill-rule="nonzero"/><path fill="#000000" fill-opacity="0.0" d="m410.86023 140.3421l39.811005 0.03149414" fill-rule="evenodd"/><path stroke="#666666" stroke-width="1.0" stroke-linejoin="round" stroke-linecap="butt" d="m410.86023 140.3421l33.811035 0.026748657" fill-rule="evenodd"/><path fill="#666666" stroke="#666666" stroke-width="1.0" stroke-linecap="butt" d="m444.66995 142.02058l4.539398 -1.6481476l-4.5367737 -1.6553192z" fill-rule="evenodd"/><path fill="#fad2cf" d="m249.42923 271.50903l0 -158.86021l29.438293 0l0 158.86021z" fill-rule="evenodd"/><path stroke="#b7b7b7" stroke-width="1.0" stroke-linejoin="round" stroke-linecap="butt" d="m249.42923 271.50903l0 -158.86021l29.438293 0l0 158.86021z" fill-rule="evenodd"/><path fill="#a8dab5" d="m249.42923 113.435104l0 -92.17978l29.438293 0l0 92.17978z" fill-rule="evenodd"/><path stroke="#b7b7b7" stroke-width="1.0" stroke-linejoin="round" stroke-linecap="butt" d="m249.42923 113.435104l0 -92.17978l29.438293 0l0 92.17978z" fill-rule="evenodd"/><path fill="#fad2cf" d="m249.97267 270.79825l0 -158.86023l18.008347 0l0 158.86023z" fill-rule="evenodd"/><path fill="#fad2cf" d="m259.63718 270.79868l0 -158.8602l18.542847 0l0 158.8602z" fill-rule="evenodd"/><path fill="#a8dab5" d="m134.58571 119.67284l0 0c-4.2263794 0 -7.652527 -3.426155 -7.652527 -7.652527l0 -87.87605c0 -2.0295753 0.8062439 -3.9760246 2.2413635 -5.411152c1.4351349 -1.4351273 3.3815765 -2.2413712 5.4111633 -2.2413712l78.14377 0c4.226364 0 7.652527 3.4261513 7.652527 7.652523l0 87.87605c0 4.226372 -3.4261627 7.652527 -7.652527 7.652527z" fill-rule="evenodd"/><path stroke="#81c995" stroke-width="1.0" stroke-linejoin="round" stroke-linecap="butt" d="m134.58571 119.67284l0 0c-4.2263794 0 -7.652527 -3.426155 -7.652527 -7.652527l0 -87.87605c0 -2.0295753 0.8062439 -3.9760246 2.2413635 -5.411152c1.4351349 -1.4351273 3.3815765 -2.2413712 5.4111633 -2.2413712l78.14377 0c4.226364 0 7.652527 3.4261513 7.652527 7.652523l0 87.87605c0 4.226372 -3.4261627 7.652527 -7.652527 7.652527z" fill-rule="evenodd"/><path fill="#434343" d="m156.3482 105.36639l-0.171875 -1.875q0.9375 -0.171875 1.390625 -0.6875q0.4375 -0.515625 0.4375 -1.390625q0 -0.9375 -0.390625 -1.40625q-0.40625 -0.46875 -0.921875 -0.46875q-0.34375 0 -0.578125 0.203125q-0.234375 0.1875 -0.421875 0.6875q-0.109375 0.34375 -0.40625 1.546875q-0.390625 1.546875 -0.953125 2.171875q-0.78125 0.875 -1.921875 0.875q-0.71875 0 -1.359375 -0.40625q-0.640625 -0.421875 -0.96875 -1.1875q-0.328125 -0.78125 -0.328125 -1.890625q0 -1.796875 0.796875 -2.703125q0.78125 -0.90625 2.09375 -0.953125l0.078125 1.921875q-0.734375 0.125 -1.046875 0.53125q-0.328125 0.40625 -0.328125 1.234375q0 0.828125 0.34375 1.3125q0.21875 0.296875 0.59375 0.296875q0.34375 0 0.578125 -0.28125q0.3125 -0.359375 0.640625 -1.765625q0.328125 -1.40625 0.6875 -2.078125q0.359375 -0.6875 0.96875 -1.0625q0.609375 -0.375 1.515625 -0.375q0.828125 0 1.546875 0.453125q0.703125 0.453125 1.0625 1.296875q0.34375 0.828125 0.34375 2.0625q0 1.8125 -0.828125 2.78125q-0.84375 0.96875 -2.453125 1.15625zm0.90625 -13.358505l0.3125 -1.828125q1.0 0.34375 1.53125 1.109375q0.515625 0.765625 0.515625 1.890625q0 1.8125 -1.171875 2.671875q-0.953125 0.6875 -2.390625 0.6875q-1.71875 0 -2.6875 -0.890625q-0.96875 -0.90625 -0.96875 -2.28125q0 -1.546875 1.015625 -2.4375q1.015625 -0.890625 3.125 -0.84375l0 4.578125q0.8125 -0.015625 1.265625 -0.4375q0.453125 -0.421875 0.453125 -1.0625q0 -0.421875 -0.234375 -0.71875q-0.234375 -0.296875 -0.765625 -0.4375zm-1.84375 -0.109375q-0.796875 0.015625 -1.203125 0.40625q-0.421875 0.390625 -0.421875 0.953125q0 0.59375 0.4375 0.984375q0.4375 0.390625 1.1875 0.390625l0 -2.734375zm6.671875 -7.8187256l-3.46875 0q0.453125 0.359375 0.734375 0.890625q0.265625 0.53125 0.265625 1.15625q0 1.171875 -0.890625 1.9375q-1.03125 0.890625 -2.796875 0.890625q-1.671875 0 -2.59375 -0.84375q-0.9375 -0.84375 -0.9375 -2.09375q0 -0.6875 0.296875 -1.1875q0.28125 -0.5 0.875 -0.890625l-1.015625 0l0 -1.6875l9.53125 0l0 1.828125zm-6.171875 -0.0625q-1.046875 0 -1.5625 0.4375q-0.53125 0.421875 -0.53125 1.078125q0 0.671875 0.53125 1.125q0.53125 0.4375 1.671875 0.4375q1.140625 0 1.65625 -0.421875q0.5 -0.4375 0.5 -1.078125q0 -0.625 -0.5625 -1.09375q-0.578125 -0.484375 -1.703125 -0.484375zm3.546875 -8.110107l-1.03125 0q0.546875 0.375 0.875 1.0q0.3125 0.609375 0.3125 1.28125q0 0.703125 -0.296875 1.265625q-0.3125 0.546875 -0.859375 0.796875q-0.5625 0.234375 -1.53125 0.234375l-4.375 0l0 -1.828125l3.171875 0q1.453125 0 1.78125 -0.09375q0.328125 -0.109375 0.53125 -0.375q0.1875 -0.265625 0.1875 -0.671875q0 -0.46875 -0.25 -0.84375q-0.265625 -0.375 -0.640625 -0.5q-0.390625 -0.140625 -1.875 -0.140625l-2.90625 0l0 -1.828125l6.90625 0l0 1.703125zm-2.203125 -7.5944824l0.3125 -1.828125q1.0 0.34375 1.53125 1.109375q0.515625 0.765625 0.515625 1.890625q0 1.8125 -1.171875 2.671875q-0.953125 0.6875 -2.390625 0.6875q-1.71875 0 -2.6875 -0.890625q-0.96875 -0.90625 -0.96875 -2.28125q0 -1.546875 1.015625 -2.4375q1.015625 -0.890625 3.125 -0.84375l0 4.578125q0.8125 -0.015625 1.265625 -0.4375q0.453125 -0.421875 0.453125 -1.0625q0 -0.421875 -0.234375 -0.71875q-0.234375 -0.296875 -0.765625 -0.4375zm-1.84375 -0.109375q-0.796875 0.015625 -1.203125 0.40625q-0.421875 0.390625 -0.421875 0.953125q0 0.59375 0.4375 0.984375q0.4375 0.390625 1.1875 0.390625l0 -2.734375zm4.046875 -9.599979l0 1.828125l-3.53125 0q-1.109375 0 -1.4375 0.125q-0.328125 0.109375 -0.515625 0.375q-0.1875 0.265625 -0.1875 0.640625q0 0.46875 0.265625 0.859375q0.265625 0.375 0.703125 0.515625q0.421875 0.140625 1.578125 0.140625l3.125 0l0 1.8281288l-6.90625 0l0 -1.7031288l1.015625 0q-1.171875 -0.90625 -1.171875 -2.28125q0 -0.609375 0.21875 -1.109375q0.21875 -0.5 0.5625 -0.75q0.328125 -0.265625 0.765625 -0.359375q0.421875 -0.109375 1.21875 -0.109375l4.296875 0zm-4.875 -7.8757324l0.328125 1.796875q-0.53125 0.09375 -0.796875 0.421875q-0.28125 0.328125 -0.28125 0.828125q0 0.6875 0.46875 1.09375q0.46875 0.40625 1.578125 0.40625q1.234375 0 1.75 -0.40625q0.5 -0.421875 0.5 -1.109375q0 -0.53125 -0.296875 -0.859375q-0.296875 -0.328125 -1.03125 -0.46875l0.3125 -1.796875q1.234375 0.28125 1.875 1.078125q0.625 0.796875 0.625 2.125q0 1.515625 -0.953125 2.421875q-0.953125 0.90625 -2.65625 0.90625q-1.703125 0 -2.65625 -0.90625q-0.953125 -0.90625 -0.953125 -2.453125q0 -1.265625 0.546875 -2.0q0.53125 -0.75 1.640625 -1.078125zm-2.96875 -1.3812256l-1.703125 0l0 -1.828125l1.703125 0l0 1.828125zm7.84375 0l-6.90625 0l0 -1.828125l6.90625 0l0 1.828125zm0 -9.999863l0 1.828125l-3.53125 0q-1.109375 0 -1.4375 0.125q-0.328125 0.109375 -0.515625 0.375q-0.1875 0.265625 -0.1875 0.640625q0 0.46875 0.265625 0.859375q0.265625 0.375 0.703125 0.515625q0.421875 0.140625 1.578125 0.140625l3.125 0l0 1.828125l-6.90625 0l0 -1.703125l1.015625 0q-1.171875 -0.90625 -1.171875 -2.28125q0 -0.609375 0.21875 -1.109375q0.21875 -0.5 0.5625 -0.75q0.328125 -0.265625 0.765625 -0.359375q0.421875 -0.109375 1.21875 -0.109375l4.296875 0zm0.453125 -1.6726074l0.25 -2.09375q0.375 -0.046875 0.5 -0.25q0.203125 -0.25 0.203125 -0.8125q0 -0.71875 -0.21875 -1.078125q-0.140625 -0.234375 -0.453125 -0.359375q-0.234375 -0.078125 -0.84375 -0.078125l-1.015625 0q1.125 0.8125 1.125 2.0625q0 1.390625 -1.171875 2.203125q-0.9375 0.640625 -2.328125 0.640625q-1.734375 0 -2.640625 -0.828125q-0.921875 -0.84375 -0.921875 -2.09375q0 -1.28125 1.125 -2.109375l-0.96875 0l0 -1.7031231l6.203125 0q1.21875 0 1.8125 0.203125q0.609375 0.1875 0.953125 0.5625q0.359375 0.3593731 0.546875 0.9687481q0.203125 0.609375 0.203125 1.53125q0 1.765625 -0.609375 2.5q-0.609375 0.734375 -1.53125 0.734375q-0.09375 0 -0.21875 0zm-4.046875 -1.640625q1.09375 0 1.609375 -0.421875q0.5 -0.4375 0.5 -1.046875q0 -0.671875 -0.515625 -1.140625q-0.53125 -0.46875 -1.546875 -0.46875q-1.078125 0 -1.59375 0.453125q-0.53125 0.4375 -0.53125 1.109375q0 0.65625 0.515625 1.09375q0.515625 0.421875 1.5625 0.421875z" fill-rule="nonzero"/><path fill="#434343" d="m177.45758 80.01633l-7.921875 0l0 2.84375l-1.625 0l0 -7.59375l1.625 0l0 2.828125l7.921875 0l0 1.921875zm-6.90625 -4.120529l0 -1.9375l4.90625 -1.65625l-4.90625 -1.609375l0 -1.90625l6.640625 2.453125l1.203125 0.421875q0.609375 0.25 0.921875 0.46875q0.328125 0.21875 0.515625 0.5q0.203125 0.28125 0.3125 0.703125q0.125 0.40625 0.125 0.921875q0 0.53125 -0.125 1.03125l-1.421875 0.171875q0.078125 -0.4375 0.078125 -0.78125q0 -0.640625 -0.375 -0.9375q-0.375 -0.3125 -0.953125 -0.46875l-6.921875 2.625zm0 -8.224976l0 -1.703125l1.015625 0q-0.53125 -0.328125 -0.84375 -0.890625q-0.328125 -0.578125 -0.328125 -1.2656288q0 -1.203125 0.9375 -2.03125q0.9375 -0.84375 2.625 -0.84375q1.734375 0 2.703125 0.84375q0.953125 0.84375 0.953125 2.046875q0 0.5781288 -0.21875 1.0468788q-0.234375 0.453125 -0.796875 0.96875l3.484375 0l0 1.828125l-9.53125 0zm3.328125 -1.8125q1.171875 0 1.734375 -0.453125q0.546875 -0.46875 0.546875 -1.125q0 -0.6406288 -0.5 -1.0625038q-0.515625 -0.421875 -1.6875 -0.421875q-1.078125 0 -1.609375 0.4375q-0.53125 0.4375 -0.53125 1.0781288q0 0.671875 0.515625 1.109375q0.515625 0.4375 1.53125 0.4375zm1.375 -10.375736l0.3125 -1.828125q1.0 0.34375 1.53125 1.109375q0.515625 0.765625 0.515625 1.890625q0 1.8125 -1.171875 2.671875q-0.953125 0.6875 -2.390625 0.6875q-1.71875 0 -2.6875 -0.890625q-0.96875 -0.90625 -0.96875 -2.28125q0 -1.546875 1.015625 -2.4375q1.015625 -0.890625 3.125 -0.84375l0 4.578125q0.8125 -0.015625 1.265625 -0.4375q0.453125 -0.421875 0.453125 -1.0625q0 -0.421875 -0.234375 -0.71875q-0.234375 -0.296875 -0.765625 -0.4375zm-1.84375 -0.109375q-0.796875 0.015625 -1.203125 0.40625q-0.421875 0.390625 -0.421875 0.953125q0 0.59375 0.4375 0.984375q0.4375 0.390625 1.1875 0.390625l0 -2.734375z" fill-rule="nonzero"/><path fill="#434343" d="m195.4576 88.75504l-9.546875 3.40625l0 -2.078125l7.0625 -2.421875l-7.0625 -2.328125l0 -2.046875l9.546875 3.421875l0 2.046875zm-2.203125 -9.700958l0.3125 -1.828125q1.0 0.34375 1.53125 1.109375q0.515625 0.765625 0.515625 1.890625q0 1.8125 -1.171875 2.671875q-0.953125 0.6875 -2.390625 0.6875q-1.71875 0 -2.6875 -0.890625q-0.96875 -0.90625 -0.96875 -2.28125q0 -1.546875 1.015625 -2.4375q1.015625 -0.890625 3.125 -0.84375l0 4.578125q0.8125 -0.015625 1.265625 -0.4375q0.453125 -0.421875 0.453125 -1.0625q0 -0.421875 -0.234375 -0.71875q-0.234375 -0.296875 -0.765625 -0.4375zm-1.84375 -0.109375q-0.796875 0.015625 -1.203125 0.40625q-0.421875 0.390625 -0.421875 0.953125q0 0.59375 0.4375 0.984375q0.4375 0.390625 1.1875 0.390625l0 -2.734375zm-0.828125 -9.334351l0.328125 1.796875q-0.53125 0.09375 -0.796875 0.421875q-0.28125 0.328125 -0.28125 0.828125q0 0.6875 0.46875 1.09375q0.46875 0.40625 1.578125 0.40625q1.234375 0 1.75 -0.40625q0.5 -0.421875 0.5 -1.109375q0 -0.53125 -0.296875 -0.859375q-0.296875 -0.328125 -1.03125 -0.46875l0.3125 -1.796875q1.234375 0.28125 1.875 1.078125q0.625 0.796875 0.625 2.125q0 1.515625 -0.953125 2.421875q-0.953125 0.90625 -2.65625 0.90625q-1.703125 0 -2.65625 -0.90625q-0.953125 -0.90625 -0.953125 -2.453125q0 -1.265625 0.546875 -2.0q0.53125 -0.75 1.640625 -1.078125zm-2.03125 -4.5531006l1.453125 0l0 1.25l2.78125 0q0.84375 0 0.984375 -0.03125q0.140625 -0.046875 0.234375 -0.171875q0.09375 -0.125 0.09375 -0.3125q0 -0.25 -0.171875 -0.734375l1.421875 -0.15625q0.265625 0.640625 0.265625 1.453125q0 0.484375 -0.15625 0.890625q-0.171875 0.390625 -0.4375 0.578125q-0.265625 0.1875 -0.71875 0.265625q-0.3125 0.046875 -1.28125 0.046875l-3.015625 0l0 0.84375l-1.453125 0l0 -0.84375l-1.375 0l-1.078125 -1.828125l2.453125 0l0 -1.25zm3.359375 -0.84461975q-0.921875 0 -1.765625 -0.4531288q-0.859375 -0.453125 -1.296875 -1.265625q-0.453125 -0.828125 -0.453125 -1.84375q0 -1.5625 1.015625 -2.5625q1.015625 -1.015625 2.578125 -1.015625q1.5625 0 2.59375 1.015625q1.03125 1.015625 1.03125 2.546875q0 0.953125 -0.421875 1.8125q-0.4375 0.859375 -1.265625 1.3125q-0.828125 0.4531288 -2.015625 0.4531288zm0.09375 -1.8750038q1.03125 0 1.578125 -0.484375q0.546875 -0.5 0.546875 -1.203125q0 -0.71875 -0.546875 -1.203125q-0.546875 -0.484375 -1.59375 -0.484375q-1.015625 0 -1.5625 0.484375q-0.546875 0.484375 -0.546875 1.203125q0 0.703125 0.546875 1.203125q0.546875 0.484375 1.578125 0.484375zm3.453125 -8.438232l0 1.828125l-6.90625 0l0 -1.703125l0.984375 0q-0.703125 -0.4375 -0.921875 -0.78125q-0.21875 -0.34375 -0.21875 -0.796875q0 -0.625 0.34375 -1.203125l1.59375 0.5625q-0.296875 0.46875 -0.296875 0.859375q0 0.390625 0.21875 0.65625q0.203125 0.265625 0.765625 0.421875q0.546875 0.15625 2.296875 0.15625l2.140625 0zm-1.96875 -2.7961578l-0.28125 -1.828125q0.53125 -0.125 0.8125 -0.484375q0.265625 -0.359375 0.265625 -1.0q0 -0.703125 -0.25 -1.0625q-0.1875 -0.25 -0.484375 -0.25q-0.21875 0 -0.359375 0.140625q-0.125 0.125 -0.234375 0.609375q-0.484375 2.203125 -0.890625 2.796875q-0.5625 0.828125 -1.5625 0.828125q-0.890625 0 -1.5 -0.703125q-0.609375 -0.71875 -0.609375 -2.203125q0 -1.421875 0.46875 -2.109375q0.453125 -0.703125 1.359375 -0.953125l0.3125 1.71875q-0.40625 0.109375 -0.609375 0.421875q-0.21875 0.3125 -0.21875 0.890625q0 0.71875 0.203125 1.03125q0.140625 0.203125 0.359375 0.203125q0.203125 0 0.34375 -0.1875q0.171875 -0.234375 0.515625 -1.6875q0.328125 -1.46875 0.8125 -2.0625q0.484375 -0.5625 1.359375 -0.5625q0.953125 0 1.640625 0.796875q0.671875 0.78125 0.671875 2.34375q0 1.40625 -0.5625 2.234375q-0.578125 0.828125 -1.5625 1.078125z" fill-rule="nonzero"/><path fill="#fad2cf" d="m125.62393 269.98288l0 0c-6.61882 0 -11.984436 -5.3656006 -11.984436 -11.984436l0 -111.43269c0 -3.1784668 1.2626419 -6.226761 3.5101624 -8.474274c2.2475128 -2.2475128 5.295807 -3.5101624 8.474274 -3.5101624l84.12561 0c6.6188354 0 11.984436 5.365616 11.984436 11.984436l0 111.43269c0 6.6188354 -5.3656006 11.984436 -11.984436 11.984436z" fill-rule="evenodd"/><path stroke="#f6aea9" stroke-width="1.0" stroke-linejoin="round" stroke-linecap="butt" d="m125.62393 269.98288l0 0c-6.61882 0 -11.984436 -5.3656006 -11.984436 -11.984436l0 -111.43269c0 -3.1784668 1.2626419 -6.226761 3.5101624 -8.474274c2.2475128 -2.2475128 5.295807 -3.5101624 8.474274 -3.5101624l84.12561 0c6.6188354 0 11.984436 5.365616 11.984436 11.984436l0 111.43269c0 6.6188354 -5.3656006 11.984436 -11.984436 11.984436z" fill-rule="evenodd"/><path fill="#434343" d="m172.48674 240.99582l-9.546875 0l0 -1.9375l9.546875 0l0 1.9375zm0 -10.046738l0 1.828125l-3.53125 0q-1.109375 0 -1.4375 0.125q-0.328125 0.109375 -0.515625 0.375q-0.1875 0.265625 -0.1875 0.640625q0 0.46875 0.265625 0.859375q0.265625 0.375 0.703125 0.515625q0.421875 0.140625 1.578125 0.140625l3.125 0l0 1.828125l-6.90625 0l0 -1.703125l1.015625 0q-1.171875 -0.90625 -1.171875 -2.28125q0 -0.609375 0.21875 -1.109375q0.21875 -0.5 0.5625 -0.75q0.328125 -0.265625 0.765625 -0.359375q0.421875 -0.109375 1.21875 -0.109375l4.296875 0zm-4.875 -7.8757324l0.328125 1.796875q-0.53125 0.09375 -0.796875 0.421875q-0.28125 0.328125 -0.28125 0.828125q0 0.6875 0.46875 1.09375q0.46875 0.40625 1.578125 0.40625q1.234375 0 1.75 -0.40625q0.5 -0.421875 0.5 -1.109375q0 -0.53125 -0.296875 -0.859375q-0.296875 -0.328125 -1.03125 -0.46875l0.3125 -1.796875q1.234375 0.28125 1.875 1.078125q0.625 0.796875 0.625 2.125q0 1.515625 -0.953125 2.421875q-0.953125 0.90625 -2.65625 0.90625q-1.703125 0 -2.65625 -0.90625q-0.953125 -0.90625 -0.953125 -2.453125q0 -1.265625 0.546875 -2.0q0.53125 -0.75 1.640625 -1.078125zm2.671875 -5.3812256l0.3125 -1.828125q1.0 0.34375 1.53125 1.109375q0.515625 0.765625 0.515625 1.890625q0 1.8125 -1.171875 2.671875q-0.953125 0.6875 -2.390625 0.6875q-1.71875 0 -2.6875 -0.890625q-0.96875 -0.90625 -0.96875 -2.28125q0 -1.546875 1.015625 -2.4375q1.015625 -0.890625 3.125 -0.84375l0 4.578125q0.8125 -0.015625 1.265625 -0.4375q0.453125 -0.421875 0.453125 -1.0625q0 -0.421875 -0.234375 -0.71875q-0.234375 -0.296875 -0.765625 -0.4375zm-1.84375 -0.109375q-0.796875 0.015625 -1.203125 0.40625q-0.421875 0.390625 -0.421875 0.953125q0 0.59375 0.4375 0.984375q0.4375 0.390625 1.1875 0.390625l0 -2.734375zm-2.859375 -3.2562256l0 -1.703125l1.015625 0q-0.53125 -0.328125 -0.84375 -0.890625q-0.328125 -0.578125 -0.328125 -1.265625q0 -1.203125 0.9375 -2.03125q0.9375 -0.84375 2.625 -0.84375q1.734375 0 2.703125 0.84375q0.953125 0.84375 0.953125 2.046875q0 0.578125 -0.21875 1.046875q-0.234375 0.453125 -0.796875 0.96875l3.484375 0l0 1.828125l-9.53125 0zm3.328125 -1.8125q1.171875 0 1.734375 -0.453125q0.546875 -0.46875 0.546875 -1.125q0 -0.640625 -0.5 -1.0625q-0.515625 -0.421875 -1.6875 -0.421875q-1.078125 0 -1.609375 0.4375q-0.53125 0.4375 -0.53125 1.078125q0 0.671875 0.515625 1.109375q0.515625 0.4375 1.53125 0.4375zm-3.328125 -9.547607l1.453125 0l0 1.25l2.78125 0q0.84375 0 0.984375 -0.03125q0.140625 -0.046875 0.234375 -0.171875q0.09375 -0.125 0.09375 -0.3125q0 -0.25 -0.171875 -0.734375l1.421875 -0.15625q0.265625 0.640625 0.265625 1.453125q0 0.484375 -0.15625 0.890625q-0.171875 0.390625 -0.4375 0.578125q-0.265625 0.1875 -0.71875 0.265625q-0.3125 0.046875 -1.28125 0.046875l-3.015625 0l0 0.84375l-1.453125 0l0 -0.84375l-1.375 0l-1.078125 -1.828125l2.453125 0l0 -1.25zm-0.9375 -1.2664948l-1.703125 0l0 -1.828125l1.703125 0l0 1.828125zm7.84375 0l-6.90625 0l0 -1.828125l6.90625 0l0 1.828125zm-3.546875 -3.2811127q-0.921875 0 -1.765625 -0.453125q-0.859375 -0.453125 -1.296875 -1.265625q-0.453125 -0.828125 -0.453125 -1.84375q0 -1.5625 1.015625 -2.5625q1.015625 -1.015625 2.578125 -1.015625q1.5625 0 2.59375 1.015625q1.03125 1.015625 1.03125 2.546875q0 0.953125 -0.421875 1.8125q-0.4375 0.859375 -1.265625 1.3125q-0.828125 0.453125 -2.015625 0.453125zm0.09375 -1.875q1.03125 0 1.578125 -0.484375q0.546875 -0.5 0.546875 -1.203125q0 -0.71875 -0.546875 -1.203125q-0.546875 -0.484375 -1.59375 -0.484375q-1.015625 0 -1.5625 0.484375q-0.546875 0.484375 -0.546875 1.203125q0 0.703125 0.546875 1.203125q0.546875 0.484375 1.578125 0.484375zm3.453125 -12.985107l0 1.828125l-3.53125 0q-1.109375 0 -1.4375 0.125q-0.328125 0.109375 -0.515625 0.375q-0.1875 0.265625 -0.1875 0.640625q0 0.46875 0.265625 0.859375q0.265625 0.375 0.703125 0.515625q0.421875 0.140625 1.578125 0.140625l3.125 0l0 1.828125l-6.90625 0l0 -1.703125l1.015625 0q-1.171875 -0.90625 -1.171875 -2.28125q0 -0.609375 0.21875 -1.109375q0.21875 -0.5 0.5625 -0.75q0.328125 -0.265625 0.765625 -0.359375q0.421875 -0.109375 1.21875 -0.109375l4.296875 0zm0 -8.000595l-9.546875 3.40625l0 -2.078125l7.0625 -2.421875l-7.0625 -2.328125l0 -2.046875l9.546875 3.421875l0 2.046875zm-2.53125 -5.9835052l-0.21875 -1.765625q0.6875 -0.09375 1.046875 -0.453125q0.34375 -0.375 0.34375 -0.90625q0 -0.5625 -0.421875 -0.953125q-0.4375 -0.390625 -1.15625 -0.390625q-0.6875 0 -1.09375 0.375q-0.40625 0.375 -0.40625 0.90625q0 0.34375 0.140625 0.84375l-1.5 -0.203125q0.03125 -0.75 -0.3125 -1.140625q-0.34375 -0.390625 -0.90625 -0.390625q-0.484375 0 -0.765625 0.296875q-0.296875 0.28125 -0.296875 0.75q0 0.46875 0.328125 0.8125q0.328125 0.328125 0.953125 0.390625l-0.296875 1.6875q-0.859375 -0.171875 -1.375 -0.515625q-0.515625 -0.359375 -0.8125 -1.0q-0.296875 -0.640625 -0.296875 -1.421875q0 -1.34375 0.859375 -2.15625q0.703125 -0.671875 1.59375 -0.671875q1.25 0 2.0 1.375q0.171875 -0.828125 0.78125 -1.3125q0.609375 -0.5 1.484375 -0.5q1.25 0 2.140625 0.921875q0.875 0.921875 0.875 2.28125q0 1.296875 -0.734375 2.15625q-0.75 0.84375 -1.953125 0.984375z" fill-rule="nonzero"/><path fill="#cfe2f3" d="m311.81204 242.5741l0 0c-4.4502563 0 -8.057892 -3.6076508 -8.057892 -8.057907l0 -176.29364c0 -2.1370888 0.848938 -4.1866493 2.360077 -5.6977997c1.5111694 -1.5111504 3.56073 -2.3601036 5.697815 -2.3601036l32.23065 0c4.4502563 0 8.057892 3.607647 8.057892 8.057903l0 176.29364c0 4.4502563 -3.6076355 8.057907 -8.057892 8.057907z" fill-rule="evenodd"/><path stroke="#9fc5e8" stroke-width="1.0" stroke-linejoin="round" stroke-linecap="butt" d="m311.81204 242.5741l0 0c-4.4502563 0 -8.057892 -3.6076508 -8.057892 -8.057907l0 -176.29364c0 -2.1370888 0.848938 -4.1866493 2.360077 -5.6977997c1.5111694 -1.5111504 3.56073 -2.3601036 5.697815 -2.3601036l32.23065 0c4.4502563 0 8.057892 3.607647 8.057892 8.057903l0 176.29364c0 4.4502563 -3.6076355 8.057907 -8.057892 8.057907z" fill-rule="evenodd"/><path fill="#434343" d="m323.18048 165.40259l0 -3.515625q0 -1.1875 0.1875 -1.8125q0.25 -0.84375 0.890625 -1.4375q0.625 -0.609375 1.546875 -0.921875q0.90625 -0.3125 2.25 -0.3125q1.171875 0 2.015625 0.296875q1.046875 0.359375 1.6875 1.03125q0.5 0.5 0.765625 1.34375q0.203125 0.640625 0.203125 1.703125l0 3.625l-9.546875 0zm1.625 -1.921875l6.3125 0l0 -1.4375q0 -0.8125 -0.09375 -1.171875q-0.109375 -0.46875 -0.390625 -0.765625q-0.28125 -0.3125 -0.921875 -0.5q-0.640625 -0.203125 -1.75 -0.203125q-1.109375 0 -1.6875 0.203125q-0.59375 0.1875 -0.921875 0.546875q-0.34375 0.34375 -0.453125 0.875q-0.09375 0.40625 -0.09375 1.59375l0 0.859375zm5.71875 -11.687653l0.3125 -1.828125q1.0 0.34375 1.53125 1.109375q0.515625 0.765625 0.515625 1.890625q0 1.8125 -1.171875 2.671875q-0.953125 0.6875 -2.390625 0.6875q-1.71875 0 -2.6875 -0.890625q-0.96875 -0.90625 -0.96875 -2.28125q0 -1.546875 1.015625 -2.4375q1.015625 -0.890625 3.125 -0.84375l0 4.578125q0.8125 -0.015625 1.265625 -0.4375q0.453125 -0.421875 0.453125 -1.0625q0 -0.421875 -0.234375 -0.71875q-0.234375 -0.296875 -0.765625 -0.4375zm-1.84375 -0.109375q-0.796875 0.015625 -1.203125 0.40625q-0.421875 0.390625 -0.421875 0.953125q0 0.59375 0.4375 0.984375q0.4375 0.390625 1.1875 0.390625l0 -2.734375zm4.046875 -9.599976l0 1.828125l-3.53125 0q-1.109375 0 -1.4375 0.125q-0.328125 0.109375 -0.515625 0.375q-0.1875 0.265625 -0.1875 0.640625q0 0.46875 0.265625 0.859375q0.265625 0.375 0.703125 0.515625q0.421875 0.140625 1.578125 0.140625l3.125 0l0 1.828125l-6.90625 0l0 -1.703125l1.015625 0q-1.171875 -0.90625 -1.171875 -2.28125q0 -0.609375 0.21875 -1.109375q0.21875 -0.5 0.5625 -0.75q0.328125 -0.265625 0.765625 -0.359375q0.421875 -0.109375 1.21875 -0.109375l4.296875 0zm-1.96875 -1.2038574l-0.28125 -1.828125q0.53125 -0.125 0.8125 -0.484375q0.265625 -0.359375 0.265625 -1.0q0 -0.703125 -0.25 -1.0625q-0.1875 -0.25 -0.484375 -0.25q-0.21875 0 -0.359375 0.140625q-0.125 0.125 -0.234375 0.609375q-0.484375 2.203125 -0.890625 2.796875q-0.5625 0.828125 -1.5625 0.828125q-0.890625 0 -1.5 -0.703125q-0.609375 -0.71875 -0.609375 -2.203125q0 -1.421875 0.46875 -2.109375q0.453125 -0.703125 1.359375 -0.953125l0.3125 1.71875q-0.40625 0.109375 -0.609375 0.421875q-0.21875 0.3125 -0.21875 0.890625q0 0.71875 0.203125 1.03125q0.140625 0.203125 0.359375 0.203125q0.203125 0 0.34375 -0.1875q0.171875 -0.234375 0.515625 -1.6875q0.328125 -1.46875 0.8125 -2.0625q0.484375 -0.5625 1.359375 -0.5625q0.953125 0 1.640625 0.796875q0.671875 0.78125 0.671875 2.34375q0 1.40625 -0.5625 2.234375q-0.578125 0.828125 -1.5625 1.078125zm-0.234375 -12.053101l0.3125 -1.828125q1.0 0.34375 1.53125 1.109375q0.515625 0.765625 0.515625 1.890625q0 1.8125 -1.171875 2.671875q-0.953125 0.6875 -2.390625 0.6875q-1.71875 0 -2.6875 -0.890625q-0.96875 -0.90625 -0.96875 -2.28125q0 -1.546875 1.015625 -2.4375q1.015625 -0.890625 3.125 -0.84375l0 4.578125q0.8125 -0.015625 1.265625 -0.4375q0.453125 -0.421875 0.453125 -1.0625q0 -0.421875 -0.234375 -0.71875q-0.234375 -0.296875 -0.765625 -0.4375zm-1.84375 -0.109375q-0.796875 0.015625 -1.203125 0.40625q-0.421875 0.390625 -0.421875 0.953125q0 0.59375 0.4375 0.984375q0.4375 0.390625 1.1875 0.390625l0 -2.734375z" fill-rule="nonzero"/><path fill="#feefc3" d="m385.57605 243.4842l0 0c-4.7373047 0 -8.577606 -3.840332 -8.577606 -8.577606l0 -177.04953c0 -2.2749214 0.90371704 -4.456669 2.512329 -6.065281c1.6086121 -1.6086121 3.7903442 -2.5123177 6.065277 -2.5123177l34.309357 0c4.737274 0 8.577606 3.8403206 8.577606 8.577599l0 177.04953c0 4.737274 -3.840332 8.577606 -8.577606 8.577606z" fill-rule="evenodd"/><path stroke="#fde293" stroke-width="1.0" stroke-linejoin="round" stroke-linecap="butt" d="m385.57605 243.4842l0 0c-4.7373047 0 -8.577606 -3.840332 -8.577606 -8.577606l0 -177.04953c0 -2.2749214 0.90371704 -4.456669 2.512329 -6.065281c1.6086121 -1.6086121 3.7903442 -2.5123177 6.065277 -2.5123177l34.309357 0c4.737274 0 8.577606 3.8403206 8.577606 8.577599l0 177.04953c0 4.737274 -3.840332 8.577606 -8.577606 8.577606z" fill-rule="evenodd"/><path fill="#434343" d="m404.42136 172.18929l-0.171875 -1.875q0.9375 -0.171875 1.390625 -0.6875q0.4375 -0.515625 0.4375 -1.390625q0 -0.9375 -0.390625 -1.40625q-0.40625 -0.46875 -0.921875 -0.46875q-0.34375 0 -0.578125 0.203125q-0.234375 0.1875 -0.421875 0.6875q-0.109375 0.34375 -0.40625 1.546875q-0.390625 1.546875 -0.953125 2.171875q-0.78125 0.875 -1.921875 0.875q-0.71875 0 -1.359375 -0.40625q-0.640625 -0.421875 -0.96875 -1.1875q-0.328125 -0.78125 -0.328125 -1.890625q0 -1.796875 0.796875 -2.703125q0.78125 -0.90625 2.09375 -0.953125l0.078125 1.921875q-0.734375 0.125 -1.046875 0.53125q-0.328125 0.40625 -0.328125 1.234375q0 0.828125 0.34375 1.3125q0.21875 0.296875 0.59375 0.296875q0.34375 0 0.578125 -0.28125q0.3125 -0.359375 0.640625 -1.765625q0.328125 -1.40625 0.6875 -2.078125q0.359375 -0.6875 0.96875 -1.0625q0.609375 -0.375 1.515625 -0.375q0.828125 0 1.546875 0.453125q0.703125 0.453125 1.0625 1.296875q0.34375 0.828125 0.34375 2.0625q0 1.8125 -0.828125 2.78125q-0.84375 0.96875 -2.453125 1.15625zm-0.4375 -8.93663q-0.921875 0 -1.765625 -0.453125q-0.859375 -0.453125 -1.296875 -1.265625q-0.453125 -0.828125 -0.453125 -1.84375q0 -1.5625 1.015625 -2.5625q1.015625 -1.015625 2.578125 -1.015625q1.5625 0 2.59375 1.015625q1.03125 1.015625 1.03125 2.546875q0 0.953125 -0.421875 1.8125q-0.4375 0.859375 -1.265625 1.3125q-0.828125 0.453125 -2.015625 0.453125zm0.09375 -1.875q1.03125 0 1.578125 -0.484375q0.546875 -0.5 0.546875 -1.203125q0 -0.71875 -0.546875 -1.203125q-0.546875 -0.484375 -1.59375 -0.484375q-1.015625 0 -1.5625 0.484375q-0.546875 0.484375 -0.546875 1.203125q0 0.703125 0.546875 1.203125q0.546875 0.484375 1.578125 0.484375zm-3.453125 -5.8913574l0 -1.015625l-0.53125 0q-0.859375 0 -1.28125 -0.1875q-0.4375 -0.1875 -0.703125 -0.671875q-0.28125 -0.5 -0.28125 -1.265625q0 -0.78125 0.234375 -1.53125l1.28125 0.25q-0.109375 0.4375 -0.109375 0.84375q0 0.390625 0.1875 0.5625q0.1875 0.171875 0.703125 0.171875l0.5 0l0 -1.359375l1.4375 0l0 1.359375l5.46875 0l0 1.828125l-5.46875 0l0 1.015625l-1.4375 0zm0 -8.40712l1.453125 0l0 1.25l2.78125 0q0.84375 0 0.984375 -0.03125q0.140625 -0.046875 0.234375 -0.171875q0.09375 -0.125 0.09375 -0.3125q0 -0.25 -0.171875 -0.734375l1.421875 -0.15625q0.265625 0.640625 0.265625 1.453125q0 0.484375 -0.15625 0.890625q-0.171875 0.390625 -0.4375 0.578125q-0.265625 0.1875 -0.71875 0.265625q-0.3125 0.046875 -1.28125 0.046875l-3.015625 0l0 0.84375l-1.453125 0l0 -0.84375l-1.375 0l-1.078125 -1.828125l2.453125 0l0 -1.25zm0 -1.1258698l0 -1.6875l0.9375 0q-1.09375 -0.90625 -1.09375 -2.15625q0 -0.671875 0.28125 -1.15625q0.265625 -0.484375 0.8125 -0.796875q-0.546875 -0.453125 -0.8125 -0.984375q-0.28125 -0.53125 -0.28125 -1.125q0 -0.765625 0.3125 -1.28125q0.296875 -0.53125 0.90625 -0.796875q0.4375 -0.1875 1.421875 -0.1875l4.421875 0l0 1.828125l-3.953125 0q-1.03125 0 -1.328125 0.1875q-0.390625 0.25 -0.390625 0.78125q0 0.390625 0.234375 0.734375q0.234375 0.328125 0.6875 0.484375q0.453125 0.140625 1.4375 0.140625l3.3125 0l0 1.828125l-3.78125 0q-1.015625 0 -1.296875 0.109375q-0.296875 0.09375 -0.4375 0.296875q-0.15625 0.203125 -0.15625 0.546875q0 0.421875 0.234375 0.765625q0.21875 0.34375 0.65625 0.484375q0.421875 0.140625 1.421875 0.140625l3.359375 0l0 1.84375l-6.90625 0zm2.109375 -13.36647l-0.3125 1.671875q-1.0 -0.28125 -1.46875 -0.96875q-0.484375 -0.6875 -0.484375 -2.03125q0 -1.21875 0.296875 -1.8125q0.28125 -0.609375 0.734375 -0.84375q0.4375 -0.25 1.625 -0.25l2.140625 0.015625q0.90625 0 1.34375 -0.078125q0.421875 -0.09375 0.921875 -0.34375l0 1.8125q-0.1875 0.078125 -0.546875 0.171875q-0.15625 0.046875 -0.203125 0.078125q0.453125 0.46875 0.6875 1.0q0.21875 0.53125 0.21875 1.140625q0 1.0625 -0.578125 1.6875q-0.578125 0.609375 -1.46875 0.609375q-0.578125 0 -1.03125 -0.28125q-0.46875 -0.28125 -0.703125 -0.78125q-0.25 -0.515625 -0.4375 -1.46875q-0.234375 -1.28125 -0.453125 -1.765625l-0.171875 0q-0.53125 0 -0.75 0.265625q-0.234375 0.25 -0.234375 0.96875q0 0.484375 0.203125 0.765625q0.1875 0.265625 0.671875 0.4375zm1.484375 -2.4375q0.109375 0.34375 0.28125 1.109375q0.15625 0.765625 0.3125 1.0q0.25 0.359375 0.640625 0.359375q0.390625 0 0.671875 -0.28125q0.28125 -0.296875 0.28125 -0.734375q0 -0.5 -0.328125 -0.953125q-0.25 -0.328125 -0.609375 -0.4375q-0.234375 -0.0625 -0.890625 -0.0625l-0.359375 0zm3.3125 -2.7249756l-3.5625 -2.5l-3.34375 2.390625l0 -2.234375l1.890625 -1.21875l-1.890625 -1.28125l0 -2.15625l3.265625 2.34375l3.640625 -2.546875l0 2.234375l-2.140625 1.40625l2.140625 1.421875l0 2.140625z" fill-rule="nonzero"/><path fill="#000000" fill-opacity="0.0" d="m80.20473 140.37837c11.685272 0 17.528023 -18.07087 23.370544 -36.14173c5.8425217 -18.07087 11.684807 -36.14173 23.369614 -36.14173" fill-rule="evenodd"/><path stroke="#666666" stroke-width="1.0" stroke-linejoin="round" stroke-linecap="butt" d="m80.20473 140.37837c11.685272 0 17.528023 -18.07087 23.370544 -36.14173c5.8425217 -18.07087 11.684807 -36.14173 23.369614 -36.14173" fill-rule="evenodd"/><path fill="#000000" fill-opacity="0.0" d="m80.20473 140.37837c8.365044 0 12.548988 15.472443 16.730095 30.944885c4.181099 15.472443 8.35936 30.944885 16.71872 30.944885" fill-rule="evenodd"/><path stroke="#666666" stroke-width="1.0" stroke-linejoin="round" stroke-linecap="butt" d="m80.20473 140.37837c8.365044 0 12.548988 15.472443 16.730095 30.944885c4.181099 15.472443 8.35936 30.944885 16.71872 30.944885" fill-rule="evenodd"/></g></svg>