<svg version="1.1" viewBox="0.0 0.0 576.0 384.0" fill="none" stroke="none" stroke-linecap="square" stroke-miterlimit="10" xmlns:xlink="http://www.w3.org/1999/xlink" xmlns="http://www.w3.org/2000/svg"><clipPath id="p.0"><path d="m0 0l576.0 0l0 384.0l-576.0 0l0 -384.0z" clip-rule="nonzero"/></clipPath><g clip-path="url(#p.0)"><path fill="#000000" fill-opacity="0.0" d="m0 0l576.0 0l0 384.0l-576.0 0z" fill-rule="evenodd"/><path fill="#000000" fill-opacity="0.0" d="m220.66222 257.5337l33.76378 0.08306885" fill-rule="evenodd"/><path stroke="#666666" stroke-width="1.0" stroke-linejoin="round" stroke-linecap="butt" d="m220.66222 257.5337l27.763794 0.06832886" fill-rule="evenodd"/><path fill="#666666" stroke="#666666" stroke-width="1.0" stroke-linecap="butt" d="m248.42195 259.25375l4.542145 -1.640564l-4.534012 -1.6629028z" fill-rule="evenodd"/><path fill="#000000" fill-opacity="0.0" d="m207.1181 107.96024l47.3071 0.11076355" fill-rule="evenodd"/><path stroke="#666666" stroke-width="1.0" stroke-linejoin="round" stroke-linecap="butt" d="m207.1181 107.96024l41.307114 0.096717834" fill-rule="evenodd"/><path fill="#666666" stroke="#666666" stroke-width="1.0" stroke-linecap="butt" d="m248.42134 109.70869l4.5419617 -1.641098l-4.5342255 -1.6623535z" fill-rule="evenodd"/><path fill="#000000" fill-opacity="0.0" d="m340.72177 190.88657l49.921265 -0.55381775" fill-rule="evenodd"/><path stroke="#666666" stroke-width="1.0" stroke-linejoin="round" stroke-linecap="butt" d="m340.72177 190.88657l43.92163 -0.48727417" fill-rule="evenodd"/><path fill="#666666" stroke="#666666" stroke-width="1.0" stroke-linecap="butt" d="m384.66174 192.05093l4.5195007 -1.7019806l-4.5561523 -1.6012878z" fill-rule="evenodd"/><path fill="#000000" fill-opacity="0.0" d="m278.6747 190.42444l33.763763 0.35998535" fill-rule="evenodd"/><path stroke="#666666" stroke-width="1.0" stroke-linejoin="round" stroke-linecap="butt" d="m278.6747 190.42444l27.76413 0.2960205" fill-rule="evenodd"/><path fill="#666666" stroke="#666666" stroke-width="1.0" stroke-linecap="butt" d="m306.4212 192.3721l4.5554504 -1.6032562l-4.520233 -1.7000275z" fill-rule="evenodd"/><path fill="#efefef" d="m22.875557 265.22858l0 0c-3.2855682 0 -5.9484863 -2.6634827 -5.947792 -5.9490356l0.02898407 -137.30284c3.33786E-4 -1.5777817 0.62742615 -3.09095 1.7433243 -4.2066116c1.1158981 -1.1156616 2.6291943 -1.7424316 4.2069798 -1.7424316l44.889305 0c3.2855682 0 5.9484863 2.663475 5.947792 5.9490433l-0.02898407 137.30284c-6.942749E-4 3.285553 -2.664734 5.9490356 -5.950302 5.9490356z" fill-rule="evenodd"/><path stroke="#b7b7b7" stroke-width="1.0" stroke-linejoin="round" stroke-linecap="butt" d="m22.875557 265.22858l0 0c-3.2855682 0 -5.9484863 -2.6634827 -5.947792 -5.9490356l0.02898407 -137.30284c3.33786E-4 -1.5777817 0.62742615 -3.09095 1.7433243 -4.2066116c1.1158981 -1.1156616 2.6291943 -1.7424316 4.2069798 -1.7424316l44.889305 0c3.2855682 0 5.9484863 2.663475 5.947792 5.9490433l-0.02898407 137.30284c-6.942749E-4 3.285553 -2.664734 5.9490356 -5.950302 5.9490356z" fill-rule="evenodd"/><path fill="#434343" d="m50.129593 220.7768l-9.546875 0l0.0014953613 -7.078125l1.625 0l-0.0010910034 5.15625l2.109375 0l0.0010147095 -4.796875l1.609375 0l-0.0010147095 4.796875l2.59375 0l0.0011253357 -5.328125l1.609375 0l-0.0015296936 7.25zm0.0016899109 -7.9991302l-3.5619736 -2.5l-3.3442535 2.390625l4.6920776E-4 -2.234375l1.8908844 -1.21875l-1.8903542 -1.28125l4.5394897E-4 -2.15625l3.265129 2.34375l3.6411629 -2.546875l-4.6920776E-4 2.234375l-2.1409225 1.40625l2.1403236 1.421875l-4.5013428E-4 2.140625zm-4.794838 -9.662476l-0.31285095 1.671875q-0.9999428 -0.28125 -1.4685478 -0.96875q-0.48423004 -0.6875 -0.48394394 -2.03125q2.5558472E-4 -1.21875 0.29725647 -1.8125q0.2813797 -0.609375 0.7345543 -0.84375q0.4375534 -0.25 1.6250534 -0.25l2.1406212 0.015625q0.90625 0 1.3437653 -0.078125q0.42189407 -0.09375 0.9219475 -0.34375l-3.8146973E-4 1.8125q-0.18751526 0.078125 -0.54691315 0.171875q-0.15625763 0.046875 -0.20314026 0.078125q0.45302582 0.46875 0.6872902 1.0q0.21863556 0.53125 0.21850967 1.140625q-2.2506714E-4 1.0625 -0.5784836 1.6875q-0.5782547 0.609375 -1.4688797 0.609375q-0.578125 0 -1.031189 -0.28125q-0.46868896 -0.28125 -0.70296097 -0.78125q-0.24988937 -0.515625 -0.437191 -1.46875q-0.23410416 -1.28125 -0.45275116 -1.765625l-0.171875 0q-0.53125 0 -0.7500572 0.265625q-0.23442459 0.25 -0.23457718 0.96875q-1.02996826E-4 0.484375 0.20296478 0.765625q0.18744278 0.265625 0.67177963 0.4375zm1.48489 -2.4375q0.10930252 0.34375 0.2810173 1.109375q0.15608597 0.765625 0.31228638 1.0q0.24992752 0.359375 0.6405525 0.359375q0.390625 0 0.6719322 -0.28125q0.28131485 -0.296875 0.2814064 -0.734375q1.02996826E-4 -0.5 -0.32792282 -0.953125q-0.24993134 -0.328125 -0.60928345 -0.4375q-0.23436356 -0.0625 -0.89061356 -0.0625l-0.359375 0zm-3.5930176 -3.4593506l3.5476685E-4 -1.6875l0.9375 0q-1.0935593 -0.90625 -1.093296 -2.15625q1.449585E-4 -0.671875 0.28149414 -1.15625q0.265728 -0.484375 0.81266785 -0.796875q-0.54677963 -0.453125 -0.8122902 -0.984375q-0.28113937 -0.53125 -0.2810135 -1.125q1.6403198E-4 -0.765625 0.31277084 -1.28125q0.29698563 -0.53125 0.90641785 -0.796875q0.43754196 -0.1875 1.421917 -0.1875l4.421875 0l-3.8909912E-4 1.828125l-3.953125 0q-1.03125 0 -1.3281631 0.1875q-0.3906784 0.25 -0.39078903 0.78125q-8.392334E-5 0.390625 0.2342186 0.734375q0.23430634 0.328125 0.687397 0.484375q0.4530983 0.140625 1.4374733 0.140625l3.3125 0l-3.8909912E-4 1.828125l-3.78125 0q-1.015625 0 -1.2968979 0.109375q-0.29689407 0.09375 -0.43756104 0.296875q-0.15629196 0.203125 -0.15636444 0.546875q-9.1552734E-5 0.421875 0.23421097 0.765625q0.21867752 0.34375 0.656147 0.484375q0.4218483 0.140625 1.4218483 0.140625l3.359375 0l-3.8909912E-4 1.84375l-6.90625 0zm0.002521515 -11.944595l3.5858154E-4 -1.703125l1.015625 0q-0.53118134 -0.328125 -0.8435631 -0.890625q-0.32800293 -0.578125 -0.32785797 -1.265625q2.5558472E-4 -1.203125 0.93793106 -2.03125q0.9376755 -0.84375 2.6251755 -0.84375q1.734375 0 2.7029495 0.84375q0.9529457 0.84375 0.9526901 2.046875q-1.2207031E-4 0.578125 -0.21897125 1.046875q-0.23447037 0.453125 -0.7970772 0.96875l3.484375 0l-3.8528442E-4 1.828125l-9.53125 0zm3.3285065 -1.8125q1.171875 0 1.7344704 -0.453125q0.5469742 -0.46875 0.5471115 -1.125q1.373291E-4 -0.640625 -0.49977493 -1.0625q-0.51553726 -0.421875 -1.6874123 -0.421875q-1.078125 0 -1.6094666 0.4375q-0.53134155 0.4375 -0.53147507 1.078125q-1.449585E-4 0.671875 0.5153885 1.109375q0.51553345 0.4375 1.5311584 0.4375zm3.5794716 -6.3757324l-9.546875 0l3.8528442E-4 -1.828125l9.546875 0l-3.8528442E-4 1.828125zm-2.2015 -7.7029877l0.31288528 -1.828125q0.9999275 0.34375 1.5310173 1.109375q0.51546097 0.765625 0.51522446 1.890625q-3.8146973E-4 1.8125 -1.1724396 2.671875q-0.95326996 0.6875 -2.39077 0.6875q-1.71875 0 -2.6873093 -0.890625q-0.96855927 -0.90625 -0.96826935 -2.28125q3.2424927E-4 -1.546875 1.01614 -2.4375q1.0158119 -0.890625 3.1251755 -0.84375l-9.651184E-4 4.578125q0.8125038 -0.015625 1.2657166 -0.4375q0.45321655 -0.421875 0.45335007 -1.0625q8.773804E-5 -0.421875 -0.23422241 -0.71875q-0.23431396 -0.296875 -0.76553345 -0.4375zm-1.8437271 -0.109375q-0.7968788 0.015625 -1.2032089 0.40625q-0.42195892 0.390625 -0.42207718 0.953125q-1.2588501E-4 0.59375 0.4372902 0.984375q0.4374199 0.390625 1.1874199 0.390625l5.760193E-4 -2.734375zm2.0786858 -2.6624756l-0.2808609 -1.828125q0.5312767 -0.125 0.8125992 -0.484375q0.2657013 -0.359375 0.26583862 -1.0q1.487732E-4 -0.703125 -0.24977493 -1.0625q-0.18745041 -0.25 -0.4843254 -0.25q-0.21875 0 -0.3594017 0.140625q-0.1250267 0.125 -0.2345047 0.609375q-0.4848404 2.203125 -0.8912163 2.796875q-0.5626755 0.828125 -1.5626755 0.828125q-0.890625 0 -1.4998512 -0.703125q-0.6092224 -0.71875 -0.6089096 -2.203125q3.0136108E-4 -1.421875 0.46919632 -2.109375q0.45327377 -0.703125 1.3595772 -0.953125l0.3121338 1.71875q-0.4062729 0.109375 -0.60946274 0.421875q-0.21881485 0.3125 -0.21893692 0.890625q-1.5258789E-4 0.71875 0.20290756 1.03125q0.14057922 0.203125 0.35932922 0.203125q0.203125 0 0.34379196 -0.1875q0.17192459 -0.234375 0.51597977 -1.6875q0.3284378 -1.46875 0.8129349 -2.0625q0.48449707 -0.5625 1.3594971 -0.5625q0.953125 0 1.6404533 0.796875q0.67171097 0.78125 0.6713829 2.34375q-2.975464E-4 1.40625 -0.562973 2.234375q-0.5783005 0.828125 -1.5627289 1.078125z" fill-rule="nonzero"/><path fill="#efefef" d="m470.06088 59.206745l0 0c0 -5.0914497 4.1274414 -9.214523 9.218903 -9.209141l69.562256 0.07351303c2.4449463 0.00258255 4.789856 0.9763336 6.5186768 2.707035c1.7288818 1.7307053 2.7001953 4.0765915 2.7001953 6.521591l0 272.69434c0 5.0914307 -4.1274414 9.214508 -9.218872 9.209137l-69.562256 -0.073516846c-5.091461 -0.0054016113 -9.218903 -4.1371765 -9.218903 -9.228638z" fill-rule="evenodd"/><path stroke="#b7b7b7" stroke-width="1.0" stroke-linejoin="round" stroke-linecap="butt" d="m470.06088 59.206745l0 0c0 -5.0914497 4.1274414 -9.214523 9.218903 -9.209141l69.562256 0.07351303c2.4449463 0.00258255 4.789856 0.9763336 6.5186768 2.707035c1.7288818 1.7307053 2.7001953 4.0765915 2.7001953 6.521591l0 272.69434c0 5.0914307 -4.1274414 9.214508 -9.218872 9.209137l-69.562256 -0.073516846c-5.091461 -0.0054016113 -9.218903 -4.1371765 -9.218903 -9.228638z" fill-rule="evenodd"/><path fill="#000000" fill-opacity="0.0" d="m461.4147 116.02829l105.29135 0l0 205.1549l-105.29135 0z" fill-rule="evenodd"/><path fill="#434343" d="m493.2566 132.8283l0 -4.3125q0 -1.078125 -0.796875 -1.078125q-0.40625 0 -0.78125 0.328125q-0.359375 0.3125 -0.765625 0.875l0 4.1875l-1.59375 0l0 -9.203125l1.59375 0l0 2.265625l-0.078125 1.203125q0.1875 -0.234375 0.390625 -0.421875q0.21875 -0.203125 0.453125 -0.328125q0.25 -0.140625 0.53125 -0.203125q0.28125 -0.0625 0.609375 -0.0625q0.515625 0 0.890625 0.171875q0.375 0.15625 0.625 0.46875q0.265625 0.296875 0.390625 0.71875q0.125 0.421875 0.125 0.953125l0 4.4375l-1.59375 0zm9.343475 -3.359375q0 0.78125 -0.21875 1.4375q-0.21875 0.640625 -0.640625 1.109375q-0.421875 0.453125 -1.03125 0.71875q-0.59375 0.25 -1.375 0.25q-0.734375 0 -1.3125 -0.21875q-0.578125 -0.21875 -0.984375 -0.640625q-0.40625 -0.421875 -0.625 -1.0625q-0.203125 -0.65625 -0.203125 -1.5q0 -0.78125 0.21875 -1.421875q0.234375 -0.65625 0.640625 -1.109375q0.421875 -0.453125 1.03125 -0.703125q0.609375 -0.25 1.375 -0.25q0.734375 0 1.3125 0.21875q0.578125 0.21875 0.984375 0.65625q0.40625 0.421875 0.609375 1.0625q0.21875 0.625 0.21875 1.453125zm-1.65625 0.046875q0 -1.03125 -0.390625 -1.546875q-0.375 -0.515625 -1.140625 -0.515625q-0.40625 0 -0.703125 0.15625q-0.296875 0.15625 -0.484375 0.453125q-0.1875 0.28125 -0.28125 0.65625q-0.078125 0.375 -0.078125 0.796875q0 1.046875 0.40625 1.578125q0.421875 0.515625 1.140625 0.515625q0.40625 0 0.6875 -0.15625q0.296875 -0.171875 0.484375 -0.453125q0.1875 -0.28125 0.265625 -0.65625q0.09375 -0.390625 0.09375 -0.828125zm7.702881 3.3125l0 -4.5q0 -0.25 -0.015625 -0.4375q-0.015625 -0.1875 -0.0625 -0.3125q-0.03125 -0.125 -0.109375 -0.1875q-0.078125 -0.0625 -0.203125 -0.0625q-0.203125 0 -0.40625 0.28125q-0.1875 0.265625 -0.4375 0.9375l0 4.28125l-1.359375 0l0 -4.5q0 -0.25 -0.015625 -0.4375q0 -0.1875 -0.046875 -0.3125q-0.03125 -0.125 -0.109375 -0.1875q-0.078125 -0.0625 -0.21875 -0.0625q-0.171875 0 -0.375 0.28125q-0.203125 0.265625 -0.46875 0.9375l0 4.28125l-1.359375 0l0 -6.609375l1.171875 0l0.03125 0.953125q0.140625 -0.28125 0.28125 -0.484375q0.140625 -0.21875 0.296875 -0.34375q0.171875 -0.140625 0.359375 -0.1875q0.1875 -0.0625 0.421875 -0.0625q0.546875 0 0.828125 0.296875q0.296875 0.28125 0.34375 0.78125q0.15625 -0.28125 0.296875 -0.484375q0.15625 -0.21875 0.3125 -0.34375q0.171875 -0.140625 0.359375 -0.1875q0.203125 -0.0625 0.4375 -0.0625q0.71875 0 1.0625 0.5q0.34375 0.5 0.34375 1.484375l0 4.75l-1.359375 0zm3.3903503 -2.84375l0 -1.40625l4.046875 0l0 1.40625l-4.046875 0zm10.843506 -1.203125q0.015625 -0.359375 -0.03125 -0.625q-0.046875 -0.265625 -0.15625 -0.421875q-0.109375 -0.171875 -0.265625 -0.25q-0.15625 -0.078125 -0.359375 -0.078125q-0.34375 0 -0.71875 0.296875q-0.375 0.28125 -0.828125 0.9375l0 4.1875l-1.625 0l0 -6.609375l1.4375 0l0.0625 0.953125q0.15625 -0.25 0.359375 -0.453125q0.203125 -0.203125 0.453125 -0.34375q0.25 -0.140625 0.5625 -0.21875q0.3125 -0.078125 0.671875 -0.078125q0.5 0 0.890625 0.171875q0.390625 0.171875 0.640625 0.515625q0.265625 0.328125 0.390625 0.84375q0.140625 0.5 0.109375 1.171875l-1.59375 0zm8.843506 0.234375q0 0.15625 -0.015625 0.421875q-0.015625 0.265625 -0.03125 0.484375l-4.34375 0q0 0.4375 0.125 0.78125q0.140625 0.328125 0.375 0.546875q0.25 0.21875 0.59375 0.34375q0.34375 0.109375 0.75 0.109375q0.484375 0 1.03125 -0.0625q0.5625 -0.078125 1.15625 -0.25l0 1.265625q-0.265625 0.0625 -0.5625 0.125q-0.296875 0.0625 -0.609375 0.109375q-0.3125 0.046875 -0.640625 0.0625q-0.3125 0.03125 -0.609375 0.03125q-0.75 0 -1.359375 -0.21875q-0.59375 -0.21875 -1.015625 -0.640625q-0.40625 -0.421875 -0.640625 -1.03125q-0.21875 -0.625 -0.21875 -1.4375q0 -0.796875 0.21875 -1.453125q0.234375 -0.671875 0.625 -1.140625q0.40625 -0.46875 0.984375 -0.71875q0.578125 -0.265625 1.296875 -0.265625q0.703125 0 1.234375 0.21875q0.546875 0.21875 0.90625 0.609375q0.359375 0.390625 0.546875 0.9375q0.203125 0.53125 0.203125 1.171875zm-1.625 -0.234375q0.015625 -0.390625 -0.09375 -0.671875q-0.109375 -0.296875 -0.296875 -0.484375q-0.171875 -0.1875 -0.40625 -0.28125q-0.234375 -0.09375 -0.515625 -0.09375q-0.59375 0 -0.984375 0.40625q-0.375 0.40625 -0.453125 1.125l2.75 0zm9.124695 -3.796875q-0.296875 -0.09375 -0.6875 -0.15625q-0.390625 -0.0625 -0.796875 -0.0625q-0.28125 0 -0.53125 0.078125q-0.234375 0.078125 -0.40625 0.234375q-0.171875 0.15625 -0.28125 0.40625q-0.09375 0.25 -0.09375 0.609375l0 1.078125l2.59375 0l0 1.234375l-2.59375 0l0 4.421875l-1.609375 0l0 -4.421875l-1.921875 0l0 -1.234375l1.921875 0l0 -1.015625q0 -0.6875 0.203125 -1.1875q0.203125 -0.515625 0.578125 -0.828125q0.375 -0.328125 0.90625 -0.46875q0.53125 -0.15625 1.171875 -0.15625q0.4375 0 0.828125 0.0625q0.390625 0.046875 0.71875 0.125l0 1.28125zm-6.84375 1.234375l0 0z" fill-rule="nonzero"/><path fill="#434343" d="m507.91232 196.8283l0 -4.3125q0 -1.078125 -0.796875 -1.078125q-0.40625 0 -0.78125 0.328125q-0.359375 0.3125 -0.765625 0.875l0 4.1875l-1.59375 0l0 -9.203125l1.59375 0l0 2.265625l-0.078125 1.203125q0.1875 -0.234375 0.390625 -0.421875q0.21875 -0.203125 0.453125 -0.328125q0.25 -0.140625 0.53125 -0.203125q0.28125 -0.0625 0.609375 -0.0625q0.515625 0 0.890625 0.171875q0.375 0.15625 0.625 0.46875q0.265625 0.296875 0.390625 0.71875q0.125 0.421875 0.125 0.953125l0 4.4375l-1.59375 0zm9.155975 -3.8125q0 0.15625 -0.015625 0.421875q-0.015625 0.265625 -0.03125 0.484375l-4.34375 0q0 0.4375 0.125 0.78125q0.140625 0.328125 0.375 0.546875q0.25 0.21875 0.59375 0.34375q0.34375 0.109375 0.75 0.109375q0.484375 0 1.03125 -0.0625q0.5625 -0.078125 1.15625 -0.25l0 1.265625q-0.265625 0.0625 -0.5625 0.125q-0.296875 0.0625 -0.609375 0.109375q-0.3125 0.046875 -0.640625 0.0625q-0.3125 0.03125 -0.609375 0.03125q-0.75 0 -1.359375 -0.21875q-0.59375 -0.21875 -1.015625 -0.640625q-0.40625 -0.421875 -0.640625 -1.03125q-0.21875 -0.625 -0.21875 -1.4375q0 -0.796875 0.21875 -1.453125q0.234375 -0.671875 0.625 -1.140625q0.40625 -0.46875 0.984375 -0.71875q0.578125 -0.265625 1.296875 -0.265625q0.703125 0 1.234375 0.21875q0.546875 0.21875 0.90625 0.609375q0.359375 0.390625 0.546875 0.9375q0.203125 0.53125 0.203125 1.171875zm-1.625 -0.234375q0.015625 -0.390625 -0.09375 -0.671875q-0.109375 -0.296875 -0.296875 -0.484375q-0.171875 -0.1875 -0.40625 -0.28125q-0.234375 -0.09375 -0.515625 -0.09375q-0.59375 0 -0.984375 0.40625q-0.375 0.40625 -0.453125 1.125l2.75 0zm8.640381 3.984375q-0.4375 0.09375 -0.875 0.15625q-0.421875 0.0625 -0.8125 0.0625q-0.65625 0 -1.125 -0.140625q-0.46875 -0.140625 -0.78125 -0.421875q-0.3125 -0.28125 -0.46875 -0.703125q-0.140625 -0.4375 -0.140625 -1.03125l0 -3.234375l-1.765625 0l0 -1.234375l1.765625 0l0 -1.6875l1.625 -0.4375l0 2.125l2.578125 0l0 1.234375l-2.578125 0l0 3.109375q0 0.5625 0.265625 0.859375q0.265625 0.28125 0.875 0.28125q0.390625 0 0.75 -0.0625q0.375 -0.0625 0.6875 -0.140625l0 1.265625z" fill-rule="nonzero"/><path fill="#434343" d="m493.2566 260.8283l0 -4.3125q0 -1.0781403 -0.796875 -1.0781403q-0.40625 0 -0.78125 0.328125q-0.359375 0.31251526 -0.765625 0.87501526l0 4.1875l-1.59375 0l0 -9.20314l1.59375 0l0 2.265625l-0.078125 1.203125q0.1875 -0.234375 0.390625 -0.421875q0.21875 -0.203125 0.453125 -0.328125q0.25 -0.140625 0.53125 -0.203125q0.28125 -0.0625 0.609375 -0.0625q0.515625 0 0.890625 0.171875q0.375 0.15625 0.625 0.46875q0.265625 0.296875 0.390625 0.71875q0.125 0.421875 0.125 0.95314026l0 4.4375l-1.59375 0zm9.343475 -3.359375q0 0.78125 -0.21875 1.4375q-0.21875 0.640625 -0.640625 1.109375q-0.421875 0.453125 -1.03125 0.71875q-0.59375 0.25 -1.375 0.25q-0.734375 0 -1.3125 -0.21875q-0.578125 -0.21875 -0.984375 -0.640625q-0.40625 -0.421875 -0.625 -1.0625q-0.203125 -0.65625 -0.203125 -1.5q0 -0.78125 0.21875 -1.421875q0.234375 -0.65626526 0.640625 -1.1093903q0.421875 -0.453125 1.03125 -0.703125q0.609375 -0.25 1.375 -0.25q0.734375 0 1.3125 0.21875q0.578125 0.21875 0.984375 0.65625q0.40625 0.421875 0.609375 1.0625153q0.21875 0.625 0.21875 1.453125zm-1.65625 0.046875q0 -1.03125 -0.390625 -1.5468903q-0.375 -0.515625 -1.140625 -0.515625q-0.40625 0 -0.703125 0.15625q-0.296875 0.15625 -0.484375 0.45314026q-0.1875 0.28125 -0.28125 0.65625q-0.078125 0.375 -0.078125 0.796875q0 1.046875 0.40625 1.578125q0.421875 0.515625 1.140625 0.515625q0.40625 0 0.6875 -0.15625q0.296875 -0.171875 0.484375 -0.453125q0.1875 -0.28125 0.265625 -0.65625q0.09375 -0.390625 0.09375 -0.828125zm7.702881 3.3125l0 -4.5q0 -0.25 -0.015625 -0.43751526q-0.015625 -0.1875 -0.0625 -0.3125q-0.03125 -0.125 -0.109375 -0.1875q-0.078125 -0.0625 -0.203125 -0.0625q-0.203125 0 -0.40625 0.28125q-0.1875 0.265625 -0.4375 0.93751526l0 4.28125l-1.359375 0l0 -4.5q0 -0.25 -0.015625 -0.43751526q0 -0.1875 -0.046875 -0.3125q-0.03125 -0.125 -0.109375 -0.1875q-0.078125 -0.0625 -0.21875 -0.0625q-0.171875 0 -0.375 0.28125q-0.203125 0.265625 -0.46875 0.93751526l0 4.28125l-1.359375 0l0 -6.6093903l1.171875 0l0.03125 0.953125q0.140625 -0.28125 0.28125 -0.484375q0.140625 -0.21875 0.296875 -0.34375q0.171875 -0.140625 0.359375 -0.1875q0.1875 -0.0625 0.421875 -0.0625q0.546875 0 0.828125 0.296875q0.296875 0.28125 0.34375 0.78125q0.15625 -0.28125 0.296875 -0.484375q0.15625 -0.21875 0.3125 -0.34375q0.171875 -0.140625 0.359375 -0.1875q0.203125 -0.0625 0.4375 -0.0625q0.71875 0 1.0625 0.5q0.34375 0.5 0.34375 1.4843903l0 4.75l-1.359375 0zm3.3903503 -2.84375l0 -1.40625l4.046875 0l0 1.40625l-4.046875 0zm10.734131 2.84375l-0.03125 -0.859375q-0.21875 0.21875 -0.453125 0.40625q-0.21875 0.1875 -0.5 0.328125q-0.265625 0.125 -0.59375 0.203125q-0.3125 0.078125 -0.703125 0.078125q-0.5 0 -0.890625 -0.15625q-0.375 -0.15625 -0.640625 -0.421875q-0.265625 -0.265625 -0.40625 -0.640625q-0.125 -0.375 -0.125 -0.828125q0 -0.46875 0.203125 -0.859375q0.203125 -0.40625 0.609375 -0.6875q0.40625 -0.296875 1.015625 -0.453125q0.609375 -0.15625 1.421875 -0.15625l0.875 0l0 -0.40625q0 -0.25 -0.078125 -0.45314026q-0.078125 -0.203125 -0.234375 -0.34375q-0.15625 -0.15625 -0.40625 -0.234375q-0.25 -0.078125 -0.625 -0.078125q-0.59375 0 -1.171875 0.140625q-0.5625 0.125 -1.09375 0.375l0 -1.265625q0.484375 -0.203125 1.09375 -0.3125q0.625 -0.125 1.296875 -0.125q0.734375 0 1.265625 0.140625q0.53125 0.140625 0.859375 0.421875q0.34375 0.265625 0.5 0.6875q0.171875 0.421875 0.171875 0.98439026l0 4.515625l-1.359375 0zm-0.21875 -2.921875l-0.96875 0q-0.40625 0 -0.6875 0.078125q-0.28125 0.078125 -0.46875 0.21875q-0.171875 0.125 -0.25 0.3125q-0.078125 0.171875 -0.078125 0.375q0 0.40625 0.25 0.625q0.265625 0.203125 0.71875 0.203125q0.328125 0 0.6875 -0.234375q0.359375 -0.25 0.796875 -0.6875l0 -0.890625zm5.546631 -5.0312653l-1.875 0l0 -1.25l3.5 0l0 7.9687653l1.90625 0l0 1.234375l-5.640625 0l0 -1.234375l2.109375 0l0 -6.7187653zm10.64032 7.8906403q-0.4375 0.09375 -0.875 0.15625q-0.421875 0.0625 -0.8125 0.0625q-0.65625 0 -1.125 -0.140625q-0.46875 -0.140625 -0.78125 -0.421875q-0.3125 -0.28125 -0.46875 -0.703125q-0.140625 -0.4375 -0.140625 -1.03125l0 -3.2343903l-1.765625 0l0 -1.234375l1.765625 0l0 -1.6875l1.625 -0.4375l0 2.125l2.578125 0l0 1.234375l-2.578125 0l0 3.1093903q0 0.5625 0.265625 0.859375q0.265625 0.28125 0.875 0.28125q0.390625 0 0.75 -0.0625q0.375 -0.0625 0.6875 -0.140625l0 1.265625z" fill-rule="nonzero"/><path fill="#000000" fill-opacity="0.0" d="m426.7987 190.58989l42.519684 0.027694702" fill-rule="evenodd"/><path stroke="#666666" stroke-width="1.0" stroke-linejoin="round" stroke-linecap="butt" d="m426.7987 190.58989l36.519714 0.023788452" fill-rule="evenodd"/><path fill="#666666" stroke="#666666" stroke-width="1.0" stroke-linecap="butt" d="m463.31732 192.2654l4.5391846 -1.6487732l-4.537018 -1.6546783z" fill-rule="evenodd"/><path fill="#fad2cf" d="m254.42494 347.56192l0 -190.11664l31.431839 0l0 190.11664z" fill-rule="evenodd"/><path stroke="#b7b7b7" stroke-width="1.0" stroke-linejoin="round" stroke-linecap="butt" d="m254.42494 347.56192l0 -190.11664l31.431839 0l0 190.11664z" fill-rule="evenodd"/><path fill="#a8dab5" d="m254.42494 158.38628l0 -110.31654l31.431839 0l0 110.31654z" fill-rule="evenodd"/><path stroke="#b7b7b7" stroke-width="1.0" stroke-linejoin="round" stroke-linecap="butt" d="m254.42494 158.38628l0 -110.31654l31.431839 0l0 110.31654z" fill-rule="evenodd"/><path fill="#fad2cf" d="m255.0052 346.71127l0 -190.11664l19.22786 0l0 190.11664z" fill-rule="evenodd"/><path fill="#fad2cf" d="m265.3242 346.71182l0 -190.11665l19.798523 0l0 190.11665z" fill-rule="evenodd"/><path fill="#a8dab5" d="m131.81133 165.8536l0 0c-4.5141144 0 -8.173531 -3.6594086 -8.173531 -8.173523l0 -107.07326c0 -2.1677513 0.8611374 -4.2467194 2.3939743 -5.7795525c1.5328293 -1.5328331 3.6118011 -2.3939705 5.7795563 -2.3939705l83.463974 0c4.5141144 0 8.173523 3.6594124 8.173523 8.173523l0 107.07326l0 0c0 4.5141144 -3.6594086 8.173523 -8.173523 8.173523z" fill-rule="evenodd"/><path stroke="#81c995" stroke-width="1.0" stroke-linejoin="round" stroke-linecap="butt" d="m131.81133 165.8536l0 0c-4.5141144 0 -8.173531 -3.6594086 -8.173531 -8.173523l0 -107.07326c0 -2.1677513 0.8611374 -4.2467194 2.3939743 -5.7795525c1.5328293 -1.5328331 3.6118011 -2.3939705 5.7795563 -2.3939705l83.463974 0c4.5141144 0 8.173523 3.6594124 8.173523 8.173523l0 107.07326l0 0c0 4.5141144 -3.6594086 8.173523 -8.173523 8.173523z" fill-rule="evenodd"/><path fill="#434343" d="m156.23393 141.42757l-0.171875 -1.875q0.9375 -0.171875 1.390625 -0.6875q0.4375 -0.515625 0.4375 -1.390625q0 -0.9375 -0.390625 -1.40625q-0.40625 -0.46875 -0.921875 -0.46875q-0.34375 0 -0.578125 0.203125q-0.234375 0.1875 -0.421875 0.6875q-0.109375 0.34375 -0.40625 1.546875q-0.390625 1.546875 -0.953125 2.171875q-0.78125 0.875 -1.921875 0.875q-0.71875 0 -1.359375 -0.40625q-0.640625 -0.421875 -0.96875 -1.1875q-0.328125 -0.78125 -0.328125 -1.890625q0 -1.796875 0.796875 -2.703125q0.78125 -0.90625 2.09375 -0.953125l0.078125 1.921875q-0.734375 0.125 -1.046875 0.53125q-0.328125 0.40625 -0.328125 1.234375q0 0.828125 0.34375 1.3125q0.21875 0.296875 0.59375 0.296875q0.34375 0 0.578125 -0.28125q0.3125 -0.359375 0.640625 -1.765625q0.328125 -1.40625 0.6875 -2.078125q0.359375 -0.6875 0.96875 -1.0625q0.609375 -0.375 1.515625 -0.375q0.828125 0 1.546875 0.453125q0.703125 0.453125 1.0625 1.296875q0.34375 0.828125 0.34375 2.0625q0 1.8125 -0.828125 2.78125q-0.84375 0.96875 -2.453125 1.15625zm0.90625 -13.358505l0.3125 -1.8281326q1.0 0.34375 1.53125 1.109375q0.515625 0.7656326 0.515625 1.8906326q0 1.8125 -1.171875 2.671875q-0.953125 0.6875 -2.390625 0.6875q-1.71875 0 -2.6875 -0.890625q-0.96875 -0.90625 -0.96875 -2.28125q0 -1.5468826 1.015625 -2.4375076q1.015625 -0.890625 3.125 -0.84375l0 4.5781326q0.8125 -0.015625 1.265625 -0.4375q0.453125 -0.421875 0.453125 -1.0625q0 -0.421875 -0.234375 -0.71875q-0.234375 -0.296875 -0.765625 -0.4375zm-1.84375 -0.10938263q-0.796875 0.015625 -1.203125 0.40625763q-0.421875 0.390625 -0.421875 0.953125q0 0.59375 0.4375 0.984375q0.4375 0.390625 1.1875 0.390625l0 -2.7343826zm6.671875 -7.8187256l-3.46875 0q0.453125 0.359375 0.734375 0.890625q0.265625 0.53125 0.265625 1.15625q0 1.171875 -0.890625 1.9375q-1.03125 0.890625 -2.796875 0.890625q-1.671875 0 -2.59375 -0.84375q-0.9375 -0.84375 -0.9375 -2.09375q0 -0.6875 0.296875 -1.1875q0.28125 -0.5 0.875 -0.890625l-1.015625 0l0 -1.6875l9.53125 0l0 1.828125zm-6.171875 -0.0625q-1.046875 0 -1.5625 0.4375q-0.53125 0.421875 -0.53125 1.078125q0 0.671875 0.53125 1.125q0.53125 0.4375 1.671875 0.4375q1.140625 0 1.65625 -0.421875q0.5 -0.4375 0.5 -1.078125q0 -0.625 -0.5625 -1.09375q-0.578125 -0.484375 -1.703125 -0.484375zm3.546875 -8.110107l-1.03125 0q0.546875 0.375 0.875 1.0q0.3125 0.609375 0.3125 1.28125q0 0.703125 -0.296875 1.265625q-0.3125 0.546875 -0.859375 0.796875q-0.5625 0.234375 -1.53125 0.234375l-4.375 0l0 -1.828125l3.171875 0q1.453125 0 1.78125 -0.09375q0.328125 -0.109375 0.53125 -0.375q0.1875 -0.265625 0.1875 -0.671875q0 -0.46875 -0.25 -0.84375q-0.265625 -0.375 -0.640625 -0.5q-0.390625 -0.140625 -1.875 -0.140625l-2.90625 0l0 -1.828125l6.90625 0l0 1.703125zm-2.203125 -7.5944824l0.3125 -1.828125q1.0 0.34375 1.53125 1.109375q0.515625 0.765625 0.515625 1.890625q0 1.8125 -1.171875 2.671875q-0.953125 0.6875 -2.390625 0.6875q-1.71875 0 -2.6875 -0.890625q-0.96875 -0.90625 -0.96875 -2.28125q0 -1.546875 1.015625 -2.4375q1.015625 -0.890625 3.125 -0.84375l0 4.578125q0.8125 -0.015625 1.265625 -0.4375q0.453125 -0.421875 0.453125 -1.0625q0 -0.421875 -0.234375 -0.71875q-0.234375 -0.296875 -0.765625 -0.4375zm-1.84375 -0.109375q-0.796875 0.015625 -1.203125 0.40625q-0.421875 0.390625 -0.421875 0.953125q0 0.59375 0.4375 0.984375q0.4375 0.390625 1.1875 0.390625l0 -2.734375zm4.046875 -9.599976l0 1.828125l-3.53125 0q-1.109375 0 -1.4375 0.125q-0.328125 0.109375 -0.515625 0.375q-0.1875 0.265625 -0.1875 0.640625q0 0.46875 0.265625 0.859375q0.265625 0.375 0.703125 0.515625q0.421875 0.140625 1.578125 0.140625l3.125 0l0 1.828125l-6.90625 0l0 -1.703125l1.015625 0q-1.171875 -0.90625 -1.171875 -2.28125q0 -0.609375 0.21875 -1.109375q0.21875 -0.5 0.5625 -0.75q0.328125 -0.265625 0.765625 -0.359375q0.421875 -0.109375 1.21875 -0.109375l4.296875 0zm-4.875 -7.8757324l0.328125 1.796875q-0.53125 0.09375 -0.796875 0.421875q-0.28125 0.328125 -0.28125 0.828125q0 0.6875 0.46875 1.09375q0.46875 0.40625 1.578125 0.40625q1.234375 0 1.75 -0.40625q0.5 -0.421875 0.5 -1.109375q0 -0.53125 -0.296875 -0.859375q-0.296875 -0.328125 -1.03125 -0.46875l0.3125 -1.796875q1.234375 0.28125 1.875 1.078125q0.625 0.796875 0.625 2.125q0 1.515625 -0.953125 2.421875q-0.953125 0.90625 -2.65625 0.90625q-1.703125 0 -2.65625 -0.90625q-0.953125 -0.90625 -0.953125 -2.453125q0 -1.265625 0.546875 -2.0q0.53125 -0.75 1.640625 -1.078125zm-2.96875 -1.3812256l-1.703125 0l0 -1.828125l1.703125 0l0 1.828125zm7.84375 0l-6.90625 0l0 -1.828125l6.90625 0l0 1.828125zm0 -9.999863l0 1.828125l-3.53125 0q-1.109375 0 -1.4375 0.125q-0.328125 0.109375 -0.515625 0.375q-0.1875 0.265625 -0.1875 0.640625q0 0.46875 0.265625 0.859375q0.265625 0.375 0.703125 0.515625q0.421875 0.140625 1.578125 0.140625l3.125 0l0 1.828125l-6.90625 0l0 -1.703125l1.015625 0q-1.171875 -0.90625 -1.171875 -2.28125q0 -0.609375 0.21875 -1.109375q0.21875 -0.5 0.5625 -0.75q0.328125 -0.265625 0.765625 -0.359375q0.421875 -0.109375 1.21875 -0.109375l4.296875 0zm0.453125 -1.6726074l0.25 -2.09375q0.375 -0.046875 0.5 -0.25q0.203125 -0.25 0.203125 -0.8125q0 -0.71875 -0.21875 -1.078125q-0.140625 -0.234375 -0.453125 -0.359375q-0.234375 -0.078125 -0.84375 -0.078125l-1.015625 0q1.125 0.8125 1.125 2.0625q0 1.390625 -1.171875 2.203125q-0.9375 0.640625 -2.328125 0.640625q-1.734375 0 -2.640625 -0.828125q-0.921875 -0.84375 -0.921875 -2.09375q0 -1.28125 1.125 -2.109375l-0.96875 0l0 -1.703125l6.203125 0q1.21875 0 1.8125 0.203125q0.609375 0.1875 0.953125 0.5625q0.359375 0.359375 0.546875 0.96875q0.203125 0.609375 0.203125 1.53125q0 1.765625 -0.609375 2.5q-0.609375 0.734375 -1.53125 0.734375q-0.09375 0 -0.21875 0zm-4.046875 -1.640625q1.09375 0 1.609375 -0.421875q0.5 -0.4375 0.5 -1.046875q0 -0.671875 -0.515625 -1.140625q-0.53125 -0.46875 -1.546875 -0.46875q-1.078125 0 -1.59375 0.453125q-0.53125 0.4375 -0.53125 1.109375q0 0.65625 0.515625 1.09375q0.515625 0.421875 1.5625 0.421875z" fill-rule="nonzero"/><path fill="#434343" d="m177.3433 116.0775l-7.921875 0l0 2.84375l-1.625 0l0 -7.59375l1.625 0l0 2.828125l7.921875 0l0 1.921875zm-6.90625 -4.120529l0 -1.9375l4.90625 -1.65625l-4.90625 -1.609375l0 -1.90625l6.640625 2.453125l1.203125 0.421875q0.609375 0.25 0.921875 0.46875q0.328125 0.21875 0.515625 0.5q0.203125 0.28125 0.3125 0.703125q0.125 0.40625 0.125 0.921875q0 0.53125 -0.125 1.03125l-1.421875 0.171875q0.078125 -0.4375 0.078125 -0.78125q0 -0.640625 -0.375 -0.9375q-0.375 -0.3125 -0.953125 -0.46875l-6.921875 2.625zm0 -8.224976l0 -1.703125l1.015625 0q-0.53125 -0.328125 -0.84375 -0.890625q-0.328125 -0.578125 -0.328125 -1.265625q0 -1.2031174 0.9375 -2.0312424q0.9375 -0.84375 2.625 -0.84375q1.734375 0 2.703125 0.84375q0.953125 0.84375 0.953125 2.0468674q0 0.578125 -0.21875 1.046875q-0.234375 0.453125 -0.796875 0.96875l3.484375 0l0 1.828125l-9.53125 0zm3.328125 -1.8125q1.171875 0 1.734375 -0.453125q0.546875 -0.46875 0.546875 -1.125q0 -0.640625 -0.5 -1.0624924q-0.515625 -0.421875 -1.6875 -0.421875q-1.078125 0 -1.609375 0.4375q-0.53125 0.43749237 -0.53125 1.0781174q0 0.671875 0.515625 1.109375q0.515625 0.4375 1.53125 0.4375zm1.375 -10.375725l0.3125 -1.828125q1.0 0.34375 1.53125 1.109375q0.515625 0.765625 0.515625 1.890625q0 1.8125 -1.171875 2.671875q-0.953125 0.6875 -2.390625 0.6875q-1.71875 0 -2.6875 -0.890625q-0.96875 -0.90625 -0.96875 -2.28125q0 -1.546875 1.015625 -2.4375q1.015625 -0.890625 3.125 -0.84375l0 4.578125q0.8125 -0.015625 1.265625 -0.4375q0.453125 -0.421875 0.453125 -1.0625q0 -0.421875 -0.234375 -0.71875q-0.234375 -0.296875 -0.765625 -0.4375zm-1.84375 -0.109375q-0.796875 0.015625 -1.203125 0.40625q-0.421875 0.390625 -0.421875 0.953125q0 0.59375 0.4375 0.984375q0.4375 0.390625 1.1875 0.390625l0 -2.734375z" fill-rule="nonzero"/><path fill="#434343" d="m195.3433 124.816216l-9.546875 3.4062576l0 -2.0781326l7.0625 -2.421875l-7.0625 -2.328125l0 -2.046875l9.546875 3.421875l0 2.046875zm-2.203125 -9.700958l0.3125 -1.828125q1.0 0.34375 1.53125 1.109375q0.515625 0.765625 0.515625 1.890625q0 1.8125 -1.171875 2.671875q-0.953125 0.6875 -2.390625 0.6875q-1.71875 0 -2.6875 -0.890625q-0.96875 -0.90625 -0.96875 -2.28125q0 -1.546875 1.015625 -2.4375q1.015625 -0.890625 3.125 -0.84375l0 4.578125q0.8125 -0.015625 1.265625 -0.4375q0.453125 -0.421875 0.453125 -1.0625q0 -0.421875 -0.234375 -0.71875q-0.234375 -0.296875 -0.765625 -0.4375zm-1.84375 -0.109375q-0.796875 0.015625 -1.203125 0.40625q-0.421875 0.390625 -0.421875 0.953125q0 0.59375 0.4375 0.984375q0.4375 0.390625 1.1875 0.390625l0 -2.734375zm-0.828125 -9.334351l0.328125 1.796875q-0.53125 0.09375 -0.796875 0.421875q-0.28125 0.328125 -0.28125 0.828125q0 0.6875 0.46875 1.09375q0.46875 0.40625 1.578125 0.40625q1.234375 0 1.75 -0.40625q0.5 -0.421875 0.5 -1.109375q0 -0.53125 -0.296875 -0.859375q-0.296875 -0.328125 -1.03125 -0.46875l0.3125 -1.796875q1.234375 0.28125 1.875 1.078125q0.625 0.796875 0.625 2.125q0 1.515625 -0.953125 2.421875q-0.953125 0.90625 -2.65625 0.90625q-1.703125 0 -2.65625 -0.90625q-0.953125 -0.90625 -0.953125 -2.453125q0 -1.265625 0.546875 -2.0q0.53125 -0.75 1.640625 -1.078125zm-2.03125 -4.5531006l1.453125 0l0 1.25l2.78125 0q0.84375 0 0.984375 -0.03125q0.140625 -0.046875 0.234375 -0.171875q0.09375 -0.125 0.09375 -0.3125q0 -0.25 -0.171875 -0.734375l1.421875 -0.15625q0.265625 0.640625 0.265625 1.453125q0 0.484375 -0.15625 0.890625q-0.171875 0.390625 -0.4375 0.578125q-0.265625 0.1875 -0.71875 0.265625q-0.3125 0.046875 -1.28125 0.046875l-3.015625 0l0 0.84375l-1.453125 0l0 -0.84375l-1.375 0l-1.078125 -1.828125l2.453125 0l0 -1.25zm3.359375 -0.84461975q-0.921875 0 -1.765625 -0.453125q-0.859375 -0.453125 -1.296875 -1.265625q-0.453125 -0.828125 -0.453125 -1.84375q0 -1.5625 1.015625 -2.5625q1.015625 -1.015625 2.578125 -1.015625q1.5625 0 2.59375 1.015625q1.03125 1.015625 1.03125 2.546875q0 0.953125 -0.421875 1.8125q-0.4375 0.859375 -1.265625 1.3125q-0.828125 0.453125 -2.015625 0.453125zm0.09375 -1.875q1.03125 0 1.578125 -0.484375q0.546875 -0.5 0.546875 -1.203125q0 -0.71875 -0.546875 -1.203125q-0.546875 -0.484375 -1.59375 -0.484375q-1.015625 0 -1.5625 0.484375q-0.546875 0.484375 -0.546875 1.203125q0 0.703125 0.546875 1.203125q0.546875 0.484375 1.578125 0.484375zm3.453125 -8.438232l0 1.828125l-6.90625 0l0 -1.703125l0.984375 0q-0.703125 -0.4375 -0.921875 -0.78125q-0.21875 -0.34375 -0.21875 -0.796875q0 -0.625 0.34375 -1.203125l1.59375 0.5625q-0.296875 0.46875 -0.296875 0.859375q0 0.390625 0.21875 0.65625q0.203125 0.265625 0.765625 0.421875q0.546875 0.15625 2.296875 0.15625l2.140625 0zm-1.96875 -2.7961578l-0.28125 -1.828125q0.53125 -0.125 0.8125 -0.484375q0.265625 -0.359375 0.265625 -1.0q0 -0.703125 -0.25 -1.0625q-0.1875 -0.25 -0.484375 -0.25q-0.21875 0 -0.359375 0.140625q-0.125 0.125 -0.234375 0.609375q-0.484375 2.203125 -0.890625 2.796875q-0.5625 0.828125 -1.5625 0.828125q-0.890625 0 -1.5 -0.703125q-0.609375 -0.71875 -0.609375 -2.203125q0 -1.421875 0.46875 -2.109375q0.453125 -0.703125 1.359375 -0.953125l0.3125 1.71875q-0.40625 0.109375 -0.609375 0.421875q-0.21875 0.3125 -0.21875 0.890625q0 0.71875 0.203125 1.03125q0.140625 0.203125 0.359375 0.203125q0.203125 0 0.34375 -0.1875q0.171875 -0.234375 0.515625 -1.6875q0.328125 -1.46875 0.8125 -2.0625q0.484375 -0.5625 1.359375 -0.5625q0.953125 0 1.640625 0.796875q0.671875 0.78125 0.671875 2.34375q0 1.40625 -0.5625 2.234375q-0.578125 0.828125 -1.5625 1.078125z" fill-rule="nonzero"/><path fill="#fad2cf" d="m122.238144 345.73962l0 0c-7.066246 0 -12.794571 -5.7283325 -12.794571 -12.794586l0 -136.48825c0 -3.393341 1.347992 -6.64769 3.7474365 -9.047134c2.3994522 -2.3994446 5.653801 -3.7474365 9.047134 -3.7474365l89.81242 0c7.0662537 0 12.794571 5.7283173 12.794571 12.794571l0 136.48825c0 7.0662537 -5.7283173 12.794586 -12.794571 12.794586z" fill-rule="evenodd"/><path stroke="#f6aea9" stroke-width="1.0" stroke-linejoin="round" stroke-linecap="butt" d="m122.238144 345.73962l0 0c-7.066246 0 -12.794571 -5.7283325 -12.794571 -12.794586l0 -136.48825c0 -3.393341 1.347992 -6.64769 3.7474365 -9.047134c2.3994522 -2.3994446 5.653801 -3.7474365 9.047134 -3.7474365l89.81242 0c7.0662537 0 12.794571 5.7283173 12.794571 12.794571l0 136.48825c0 7.0662537 -5.7283173 12.794586 -12.794571 12.794586z" fill-rule="evenodd"/><path fill="#434343" d="m171.94435 303.41464l-9.546875 0l0 -1.9375l9.546875 0l0 1.9375zm0 -10.046753l0 1.828125l-3.53125 0q-1.109375 0 -1.4375 0.125q-0.328125 0.109375 -0.515625 0.375q-0.1875 0.265625 -0.1875 0.640625q0 0.46875 0.265625 0.859375q0.265625 0.375 0.703125 0.515625q0.421875 0.140625 1.578125 0.140625l3.125 0l0 1.828125l-6.90625 0l0 -1.703125l1.015625 0q-1.171875 -0.90625 -1.171875 -2.28125q0 -0.609375 0.21875 -1.109375q0.21875 -0.5 0.5625 -0.75q0.328125 -0.265625 0.765625 -0.359375q0.421875 -0.109375 1.21875 -0.109375l4.296875 0zm-4.875 -7.8757324l0.328125 1.796875q-0.53125 0.09375 -0.796875 0.421875q-0.28125 0.328125 -0.28125 0.828125q0 0.6875 0.46875 1.09375q0.46875 0.40625 1.578125 0.40625q1.234375 0 1.75 -0.40625q0.5 -0.421875 0.5 -1.109375q0 -0.53125 -0.296875 -0.859375q-0.296875 -0.328125 -1.03125 -0.46875l0.3125 -1.796875q1.234375 0.28125 1.875 1.078125q0.625 0.796875 0.625 2.125q0 1.515625 -0.953125 2.421875q-0.953125 0.90625 -2.65625 0.90625q-1.703125 0 -2.65625 -0.90625q-0.953125 -0.90625 -0.953125 -2.453125q0 -1.265625 0.546875 -2.0q0.53125 -0.75 1.640625 -1.078125zm2.671875 -5.3812256l0.3125 -1.828125q1.0 0.34375 1.53125 1.109375q0.515625 0.765625 0.515625 1.890625q0 1.8125 -1.171875 2.671875q-0.953125 0.6875 -2.390625 0.6875q-1.71875 0 -2.6875 -0.890625q-0.96875 -0.90625 -0.96875 -2.28125q0 -1.546875 1.015625 -2.4375q1.015625 -0.890625 3.125 -0.84375l0 4.578125q0.8125 -0.015625 1.265625 -0.4375q0.453125 -0.421875 0.453125 -1.0625q0 -0.421875 -0.234375 -0.71875q-0.234375 -0.296875 -0.765625 -0.4375zm-1.84375 -0.109375q-0.796875 0.015625 -1.203125 0.40625q-0.421875 0.390625 -0.421875 0.953125q0 0.59375 0.4375 0.984375q0.4375 0.390625 1.1875 0.390625l0 -2.734375zm-2.859375 -3.2562256l0 -1.703125l1.015625 0q-0.53125 -0.328125 -0.84375 -0.890625q-0.328125 -0.578125 -0.328125 -1.265625q0 -1.203125 0.9375 -2.03125q0.9375 -0.84375 2.625 -0.84375q1.734375 0 2.703125 0.84375q0.953125 0.84375 0.953125 2.046875q0 0.578125 -0.21875 1.046875q-0.234375 0.453125 -0.796875 0.96875l3.484375 0l0 1.828125l-9.53125 0zm3.328125 -1.8125q1.171875 0 1.734375 -0.453125q0.546875 -0.46875 0.546875 -1.125q0 -0.640625 -0.5 -1.0625q-0.515625 -0.421875 -1.6875 -0.421875q-1.078125 0 -1.609375 0.4375q-0.53125 0.4375 -0.53125 1.078125q0 0.671875 0.515625 1.109375q0.515625 0.4375 1.53125 0.4375zm-3.328125 -9.547607l1.453125 0l0 1.25l2.78125 0q0.84375 0 0.984375 -0.03125q0.140625 -0.046875 0.234375 -0.171875q0.09375 -0.125 0.09375 -0.3125q0 -0.25 -0.171875 -0.734375l1.421875 -0.15625q0.265625 0.640625 0.265625 1.453125q0 0.484375 -0.15625 0.890625q-0.171875 0.390625 -0.4375 0.578125q-0.265625 0.1875 -0.71875 0.265625q-0.3125 0.046875 -1.28125 0.046875l-3.015625 0l0 0.84375l-1.453125 0l0 -0.84375l-1.375 0l-1.078125 -1.828125l2.453125 0l0 -1.25zm-0.9375 -1.2664795l-1.703125 0l0 -1.828125l1.703125 0l0 1.828125zm7.84375 0l-6.90625 0l0 -1.828125l6.90625 0l0 1.828125zm-3.546875 -3.281128q-0.921875 0 -1.765625 -0.453125q-0.859375 -0.453125 -1.296875 -1.265625q-0.453125 -0.828125 -0.453125 -1.84375q0 -1.5624847 1.015625 -2.5624847q1.015625 -1.015625 2.578125 -1.015625q1.5625 0 2.59375 1.015625q1.03125 1.015625 1.03125 2.5468597q0 0.953125 -0.421875 1.8125q-0.4375 0.859375 -1.265625 1.3125q-0.828125 0.453125 -2.015625 0.453125zm0.09375 -1.875q1.03125 0 1.578125 -0.484375q0.546875 -0.5 0.546875 -1.203125q0 -0.71875 -0.546875 -1.203125q-0.546875 -0.48435974 -1.59375 -0.48435974q-1.015625 0 -1.5625 0.48435974q-0.546875 0.484375 -0.546875 1.203125q0 0.703125 0.546875 1.203125q0.546875 0.484375 1.578125 0.484375zm3.453125 -12.985092l0 1.828125l-3.53125 0q-1.109375 0 -1.4375 0.125q-0.328125 0.109375 -0.515625 0.375q-0.1875 0.265625 -0.1875 0.640625q0 0.46875 0.265625 0.859375q0.265625 0.375 0.703125 0.515625q0.421875 0.140625 1.578125 0.140625l3.125 0l0 1.828125l-6.90625 0l0 -1.703125l1.015625 0q-1.171875 -0.90625 -1.171875 -2.28125q0 -0.609375 0.21875 -1.109375q0.21875 -0.5 0.5625 -0.75q0.328125 -0.265625 0.765625 -0.359375q0.421875 -0.109375 1.21875 -0.109375l4.296875 0zm0 -8.000595l-9.546875 3.40625l0 -2.078125l7.0625 -2.421875l-7.0625 -2.328125l0 -2.046875l9.546875 3.421875l0 2.046875zm-2.53125 -5.9835052l-0.21875 -1.765625q0.6875 -0.09375 1.046875 -0.453125q0.34375 -0.375 0.34375 -0.90625q0 -0.5625 -0.421875 -0.953125q-0.4375 -0.390625 -1.15625 -0.390625q-0.6875 0 -1.09375 0.375q-0.40625 0.375 -0.40625 0.90625q0 0.34375 0.140625 0.84375l-1.5 -0.203125q0.03125 -0.75 -0.3125 -1.140625q-0.34375 -0.390625 -0.90625 -0.390625q-0.484375 0 -0.765625 0.296875q-0.296875 0.28125 -0.296875 0.75q0 0.46875 0.328125 0.8125q0.328125 0.328125 0.953125 0.390625l-0.296875 1.6875q-0.859375 -0.171875 -1.375 -0.515625q-0.515625 -0.359375 -0.8125 -1.0q-0.296875 -0.640625 -0.296875 -1.421875q0 -1.34375 0.859375 -2.15625q0.703125 -0.671875 1.59375 -0.671875q1.25 0 2.0 1.375q0.171875 -0.828125 0.78125 -1.3125q0.609375 -0.5 1.484375 -0.5q1.25 0 2.140625 0.921875q0.875 0.921875 0.875 2.28125q0 1.296875 -0.734375 2.15625q-0.75 0.84375 -1.953125 0.984375z" fill-rule="nonzero"/><path fill="#cfe2f3" d="m321.04086 312.93768l0 0c-4.75177 0 -8.603851 -3.8520813 -8.603851 -8.603851l0 -213.04578c0 -2.2818832 0.9064636 -4.4703064 2.5200195 -6.0838394c1.6135254 -1.613533 3.801941 -2.520012 6.083832 -2.520012l34.414337 0c4.75177 0 8.603851 3.8520737 8.603851 8.603851l0 213.04578c0 4.75177 -3.8520813 8.603851 -8.603851 8.603851z" fill-rule="evenodd"/><path stroke="#a4c2f4" stroke-width="1.0" stroke-linejoin="round" stroke-linecap="butt" d="m321.04086 312.93768l0 0c-4.75177 0 -8.603851 -3.8520813 -8.603851 -8.603851l0 -213.04578c0 -2.2818832 0.9064636 -4.4703064 2.5200195 -6.0838394c1.6135254 -1.613533 3.801941 -2.520012 6.083832 -2.520012l34.414337 0c4.75177 0 8.603851 3.8520737 8.603851 8.603851l0 213.04578c0 4.75177 -3.8520813 8.603851 -8.603851 8.603851z" fill-rule="evenodd"/><path fill="#434343" d="m333.50116 216.84416l0 -3.515625q0 -1.1875 0.1875 -1.8125q0.25 -0.84375 0.890625 -1.4375q0.625 -0.609375 1.546875 -0.921875q0.90625 -0.3125 2.25 -0.3125q1.171875 0 2.015625 0.296875q1.046875 0.359375 1.6875 1.03125q0.5 0.5 0.765625 1.34375q0.203125 0.640625 0.203125 1.703125l0 3.625l-9.546875 0zm1.625 -1.921875l6.3125 0l0 -1.4375q0 -0.8125 -0.09375 -1.171875q-0.109375 -0.46875 -0.390625 -0.765625q-0.28125 -0.3125 -0.921875 -0.5q-0.640625 -0.203125 -1.75 -0.203125q-1.109375 0 -1.6875 0.203125q-0.59375 0.1875 -0.921875 0.546875q-0.34375 0.34375 -0.453125 0.875q-0.09375 0.40625 -0.09375 1.59375l0 0.859375zm5.71875 -11.687653l0.3125 -1.828125q1.0 0.34375 1.53125 1.109375q0.515625 0.765625 0.515625 1.890625q0 1.8125 -1.171875 2.671875q-0.953125 0.6875 -2.390625 0.6875q-1.71875 0 -2.6875 -0.890625q-0.96875 -0.90625 -0.96875 -2.28125q0 -1.546875 1.015625 -2.4375q1.015625 -0.890625 3.125 -0.84375l0 4.578125q0.8125 -0.015625 1.265625 -0.4375q0.453125 -0.421875 0.453125 -1.0625q0 -0.421875 -0.234375 -0.71875q-0.234375 -0.296875 -0.765625 -0.4375zm-1.84375 -0.109375q-0.796875 0.015625 -1.203125 0.40625q-0.421875 0.390625 -0.421875 0.953125q0 0.59375 0.4375 0.984375q0.4375 0.390625 1.1875 0.390625l0 -2.734375zm4.046875 -9.599976l0 1.828125l-3.53125 0q-1.109375 0 -1.4375 0.125q-0.328125 0.109375 -0.515625 0.375q-0.1875 0.265625 -0.1875 0.640625q0 0.46875 0.265625 0.859375q0.265625 0.375 0.703125 0.515625q0.421875 0.140625 1.578125 0.140625l3.125 0l0 1.828125l-6.90625 0l0 -1.703125l1.015625 0q-1.171875 -0.90625 -1.171875 -2.28125q0 -0.609375 0.21875 -1.109375q0.21875 -0.5 0.5625 -0.75q0.328125 -0.265625 0.765625 -0.359375q0.421875 -0.109375 1.21875 -0.109375l4.296875 0zm-1.96875 -1.2038574l-0.28125 -1.828125q0.53125 -0.125 0.8125 -0.484375q0.265625 -0.359375 0.265625 -1.0q0 -0.703125 -0.25 -1.0625q-0.1875 -0.25 -0.484375 -0.25q-0.21875 0 -0.359375 0.140625q-0.125 0.125 -0.234375 0.609375q-0.484375 2.203125 -0.890625 2.796875q-0.5625 0.828125 -1.5625 0.828125q-0.890625 0 -1.5 -0.703125q-0.609375 -0.71875 -0.609375 -2.203125q0 -1.421875 0.46875 -2.109375q0.453125 -0.703125 1.359375 -0.953125l0.3125 1.71875q-0.40625 0.109375 -0.609375 0.421875q-0.21875 0.3125 -0.21875 0.890625q0 0.71875 0.203125 1.03125q0.140625 0.203125 0.359375 0.203125q0.203125 0 0.34375 -0.1875q0.171875 -0.234375 0.515625 -1.6875q0.328125 -1.46875 0.8125 -2.0625q0.484375 -0.5625 1.359375 -0.5625q0.953125 0 1.640625 0.796875q0.671875 0.78125 0.671875 2.34375q0 1.40625 -0.5625 2.234375q-0.578125 0.828125 -1.5625 1.078125zm-0.234375 -12.053101l0.3125 -1.828125q1.0 0.34375 1.53125 1.109375q0.515625 0.765625 0.515625 1.890625q0 1.8125 -1.171875 2.671875q-0.953125 0.6875 -2.390625 0.6875q-1.71875 0 -2.6875 -0.890625q-0.96875 -0.90625 -0.96875 -2.28125q0 -1.546875 1.015625 -2.4375q1.015625 -0.890625 3.125 -0.84375l0 4.578125q0.8125 -0.015625 1.265625 -0.4375q0.453125 -0.421875 0.453125 -1.0625q0 -0.421875 -0.234375 -0.71875q-0.234375 -0.296875 -0.765625 -0.4375zm-1.84375 -0.109375q-0.796875 0.015625 -1.203125 0.40625q-0.421875 0.390625 -0.421875 0.953125q0 0.59375 0.4375 0.984375q0.4375 0.390625 1.1875 0.390625l0 -2.734375z" fill-rule="nonzero"/><path fill="#feefc3" d="m399.80334 314.0269l0 0c-5.0591125 0 -9.160309 -4.1011963 -9.160309 -9.160309l0 -214.0928c0 -2.4294586 0.9651184 -4.7594147 2.6829834 -6.4773026c1.7178955 -1.7178879 4.0478516 -2.682991 6.4773254 -2.682991l36.640045 0c5.059082 0 9.160278 4.101204 9.160278 9.160294l0 214.0928c0 5.0591125 -4.1011963 9.160309 -9.160278 9.160309z" fill-rule="evenodd"/><path stroke="#fde293" stroke-width="1.0" stroke-linejoin="round" stroke-linecap="butt" d="m399.80334 314.0269l0 0c-5.0591125 0 -9.160309 -4.1011963 -9.160309 -9.160309l0 -214.0928c0 -2.4294586 0.9651184 -4.7594147 2.6829834 -6.4773026c1.7178955 -1.7178879 4.0478516 -2.682991 6.4773254 -2.682991l36.640045 0c5.059082 0 9.160278 4.101204 9.160278 9.160294l0 214.0928c0 5.0591125 -4.1011963 9.160309 -9.160278 9.160309z" fill-rule="evenodd"/><path fill="#434343" d="m419.814 223.62762l-0.171875 -1.875q0.9375 -0.171875 1.390625 -0.6875q0.4375 -0.515625 0.4375 -1.390625q0 -0.9375 -0.390625 -1.40625q-0.40625 -0.46875 -0.921875 -0.46875q-0.34375 0 -0.578125 0.203125q-0.234375 0.1875 -0.421875 0.6875q-0.109375 0.34375 -0.40625 1.546875q-0.390625 1.546875 -0.953125 2.171875q-0.78125 0.875 -1.921875 0.875q-0.71875 0 -1.359375 -0.40625q-0.640625 -0.421875 -0.96875 -1.1875q-0.328125 -0.78125 -0.328125 -1.890625q0 -1.796875 0.796875 -2.703125q0.78125 -0.90625 2.09375 -0.953125l0.078125 1.921875q-0.734375 0.125 -1.046875 0.53125q-0.328125 0.40625 -0.328125 1.234375q0 0.828125 0.34375 1.3125q0.21875 0.296875 0.59375 0.296875q0.34375 0 0.578125 -0.28125q0.3125 -0.359375 0.640625 -1.765625q0.328125 -1.40625 0.6875 -2.078125q0.359375 -0.6875 0.96875 -1.0625q0.609375 -0.375 1.515625 -0.375q0.828125 0 1.546875 0.453125q0.703125 0.453125 1.0625 1.296875q0.34375 0.828125 0.34375 2.0625q0 1.8125 -0.828125 2.78125q-0.84375 0.96875 -2.453125 1.15625zm-0.4375 -8.93663q-0.921875 0 -1.765625 -0.453125q-0.859375 -0.453125 -1.296875 -1.265625q-0.453125 -0.828125 -0.453125 -1.84375q0 -1.5625 1.015625 -2.5625q1.015625 -1.015625 2.578125 -1.015625q1.5625 0 2.59375 1.015625q1.03125 1.015625 1.03125 2.546875q0 0.953125 -0.421875 1.8125q-0.4375 0.859375 -1.265625 1.3125q-0.828125 0.453125 -2.015625 0.453125zm0.09375 -1.875q1.03125 0 1.578125 -0.484375q0.546875 -0.5 0.546875 -1.203125q0 -0.71875 -0.546875 -1.203125q-0.546875 -0.484375 -1.59375 -0.484375q-1.015625 0 -1.5625 0.484375q-0.546875 0.484375 -0.546875 1.203125q0 0.703125 0.546875 1.203125q0.546875 0.484375 1.578125 0.484375zm-3.453125 -5.8913574l0 -1.015625l-0.53125 0q-0.859375 0 -1.28125 -0.1875q-0.4375 -0.1875 -0.703125 -0.671875q-0.28125 -0.5 -0.28125 -1.265625q0 -0.78125 0.234375 -1.53125l1.28125 0.25q-0.109375 0.4375 -0.109375 0.84375q0 0.390625 0.1875 0.5625q0.1875 0.171875 0.703125 0.171875l0.5 0l0 -1.359375l1.4375 0l0 1.359375l5.46875 0l0 1.828125l-5.46875 0l0 1.015625l-1.4375 0zm0 -8.40712l1.453125 0l0 1.25l2.78125 0q0.84375 0 0.984375 -0.03125q0.140625 -0.046875 0.234375 -0.171875q0.09375 -0.125 0.09375 -0.3125q0 -0.25 -0.171875 -0.734375l1.421875 -0.15625q0.265625 0.640625 0.265625 1.453125q0 0.484375 -0.15625 0.890625q-0.171875 0.390625 -0.4375 0.578125q-0.265625 0.1875 -0.71875 0.265625q-0.3125 0.046875 -1.28125 0.046875l-3.015625 0l0 0.84375l-1.453125 0l0 -0.84375l-1.375 0l-1.078125 -1.828125l2.453125 0l0 -1.25zm0 -1.1258698l0 -1.6875l0.9375 0q-1.09375 -0.90625 -1.09375 -2.15625q0 -0.671875 0.28125 -1.15625q0.265625 -0.484375 0.8125 -0.796875q-0.546875 -0.453125 -0.8125 -0.984375q-0.28125 -0.53125 -0.28125 -1.125q0 -0.765625 0.3125 -1.28125q0.296875 -0.53125 0.90625 -0.796875q0.4375 -0.1875 1.421875 -0.1875l4.421875 0l0 1.828125l-3.953125 0q-1.03125 0 -1.328125 0.1875q-0.390625 0.25 -0.390625 0.78125q0 0.390625 0.234375 0.734375q0.234375 0.328125 0.6875 0.484375q0.453125 0.140625 1.4375 0.140625l3.3125 0l0 1.828125l-3.78125 0q-1.015625 0 -1.296875 0.109375q-0.296875 0.09375 -0.4375 0.296875q-0.15625 0.203125 -0.15625 0.546875q0 0.421875 0.234375 0.765625q0.21875 0.34375 0.65625 0.484375q0.421875 0.140625 1.421875 0.140625l3.359375 0l0 1.84375l-6.90625 0zm2.109375 -13.36647l-0.3125 1.671875q-1.0 -0.28125 -1.46875 -0.96875q-0.484375 -0.6875 -0.484375 -2.03125q0 -1.21875 0.296875 -1.8125q0.28125 -0.609375 0.734375 -0.84375q0.4375 -0.25 1.625 -0.25l2.140625 0.015625q0.90625 0 1.34375 -0.078125q0.421875 -0.09375 0.921875 -0.34375l0 1.8125q-0.1875 0.078125 -0.546875 0.171875q-0.15625 0.046875 -0.203125 0.078125q0.453125 0.46875 0.6875 1.0q0.21875 0.53125 0.21875 1.140625q0 1.0625 -0.578125 1.6875q-0.578125 0.609375 -1.46875 0.609375q-0.578125 0 -1.03125 -0.28125q-0.46875 -0.28125 -0.703125 -0.78125q-0.25 -0.515625 -0.4375 -1.46875q-0.234375 -1.28125 -0.453125 -1.765625l-0.171875 0q-0.53125 0 -0.75 0.265625q-0.234375 0.25 -0.234375 0.96875q0 0.484375 0.203125 0.765625q0.1875 0.265625 0.671875 0.4375zm1.484375 -2.4375q0.109375 0.34375 0.28125 1.109375q0.15625 0.765625 0.3125 1.0q0.25 0.359375 0.640625 0.359375q0.390625 0 0.671875 -0.28125q0.28125 -0.296875 0.28125 -0.734375q0 -0.5 -0.328125 -0.953125q-0.25 -0.328125 -0.609375 -0.4375q-0.234375 -0.0625 -0.890625 -0.0625l-0.359375 0zm3.3125 -2.7249756l-3.5625 -2.5l-3.34375 2.390625l0 -2.234375l1.890625 -1.21875l-1.890625 -1.28125l0 -2.15625l3.265625 2.34375l3.640625 -2.546875l0 2.234375l-2.140625 1.40625l2.140625 1.421875l0 2.140625z" fill-rule="nonzero"/><path fill="#000000" fill-opacity="0.0" d="m73.72966 190.62813c12.48056 0 18.72097 -21.622055 24.961128 -43.244095c6.240158 -21.622055 12.480064 -43.244102 24.960129 -43.244102" fill-rule="evenodd"/><path stroke="#666666" stroke-width="1.0" stroke-linejoin="round" stroke-linecap="butt" d="m73.72966 190.62813c12.48056 0 18.72097 -21.622055 24.961128 -43.244095c6.240158 -21.622055 12.480064 -43.244102 24.960129 -43.244102" fill-rule="evenodd"/><path fill="#000000" fill-opacity="0.0" d="m73.72966 190.62813c8.932167 0 13.399773 18.519684 17.864342 37.039368c4.4645615 18.519684 8.926094 37.039352 17.852196 37.039352" fill-rule="evenodd"/><path stroke="#666666" stroke-width="1.0" stroke-linejoin="round" stroke-linecap="butt" d="m73.72966 190.62813c8.932167 0 13.399773 18.519684 17.864342 37.039368c4.4645615 18.519684 8.926094 37.039352 17.852196 37.039352" fill-rule="evenodd"/></g></svg>